<svg id="Layer_1" data-name="Layer 1" xmlns="http://www.w3.org/2000/svg" viewBox="0 0 38.9 38.71"><defs><style>.cls-1{fill:#07445c;}.cls-2{fill:#265c71;}</style></defs><rect class="cls-1" x="1.62" y="1.49" width="36.5" height="6"/><path class="cls-2" d="M38.26,8c.09,0,.28,0,.25-.1l-.34-.09Z" transform="translate(-0.81 -0.51)"/><path class="cls-2" d="M38.88,7.17A.83.83,0,0,0,38.13,7c.32.15.18.18.56.34,0,.12-.1.21-.22.19.08,0-.08.19.13.26a.33.33,0,0,0,.06-.58C38.73,7.12,38.81,7.16,38.88,7.17Z" transform="translate(-0.81 -0.51)"/><path class="cls-2" d="M32,1.54l.08,0A.09.09,0,0,0,32,1.54Z" transform="translate(-0.81 -0.51)"/><path class="cls-2" d="M24.58,1.35a.08.08,0,0,0,.08-.07C24.61,1.31,24.56,1.33,24.58,1.35Z" transform="translate(-0.81 -0.51)"/><path class="cls-2" d="M23.3,1l.08,0S23.32,1,23.3,1Z" transform="translate(-0.81 -0.51)"/><path class="cls-2" d="M32,1.54l-.19-.11C31.83,1.54,32,1.51,32,1.54Z" transform="translate(-0.81 -0.51)"/><path class="cls-2" d="M38.08,5.51a.26.26,0,0,0,.08.11l0-.11Z" transform="translate(-0.81 -0.51)"/><path class="cls-2" d="M35.34,1.27h.06s0-.09.05-.14Z" transform="translate(-0.81 -0.51)"/><path class="cls-2" d="M38.13,1.22c-.08,0-.19.27-.26.39a.39.39,0,0,1,.23-.19A.6.6,0,0,0,38.13,1.22Z" transform="translate(-0.81 -0.51)"/><path class="cls-2" d="M39.22,4.94l0,.07Z" transform="translate(-0.81 -0.51)"/><path class="cls-2" d="M33.53,1.21a.87.87,0,0,0,0-.1A.18.18,0,0,0,33.53,1.21Z" transform="translate(-0.81 -0.51)"/><path class="cls-2" d="M36,6.68v.05S36,6.68,36,6.68Z" transform="translate(-0.81 -0.51)"/><polygon class="cls-2" points="38.12 7.56 38.08 7.58 38.07 7.73 38.12 7.56"/><path class="cls-2" d="M21,.63h0C21,.6,21,.61,21,.63Z" transform="translate(-0.81 -0.51)"/><path class="cls-2" d="M1.27,4.88c.25-.24.32.4.6,0C1.76,5,1.43,4.58,1.27,4.88Z" transform="translate(-0.81 -0.51)"/><path class="cls-2" d="M38.11,5.44v-.1A.16.16,0,0,0,38.11,5.44Z" transform="translate(-0.81 -0.51)"/><path class="cls-2" d="M1.87,4.91h0l0,0Z" transform="translate(-0.81 -0.51)"/><path class="cls-2" d="M15.59.8a.23.23,0,0,0,.06.12A.43.43,0,0,0,15.59.8Z" transform="translate(-0.81 -0.51)"/><path class="cls-2" d="M19.6,1.2l-.1,0A.16.16,0,0,0,19.6,1.2Z" transform="translate(-0.81 -0.51)"/><path class="cls-2" d="M13.51,1.2s-.07-.06-.15,0l0,0S13.45,1.15,13.51,1.2Z" transform="translate(-0.81 -0.51)"/><path class="cls-2" d="M11.35,1.2l0,.05h.06Z" transform="translate(-0.81 -0.51)"/><path class="cls-2" d="M29.42,6.82a.69.69,0,0,1,.1.25C29.49,6.87,29.81,6.8,29.42,6.82Z" transform="translate(-0.81 -0.51)"/><path class="cls-2" d="M38.24,5.51c-.08,0-.11,0-.13-.07l0,.07Z" transform="translate(-0.81 -0.51)"/><path class="cls-2" d="M13.42,3.41l-.34,0A1.18,1.18,0,0,0,13.42,3.41Z" transform="translate(-0.81 -0.51)"/><path class="cls-2" d="M13.89,6.86l.08,0A.07.07,0,0,0,13.89,6.86Z" transform="translate(-0.81 -0.51)"/><path class="cls-2" d="M12.06,3.41a.51.51,0,0,0-.2-.19.43.43,0,0,0,0,.07Z" transform="translate(-0.81 -0.51)"/><path class="cls-2" d="M29.52,7.07Z" transform="translate(-0.81 -0.51)"/><path class="cls-2" d="M31.79,6.4c-.33,0-.16.37-.23.58-.39.1-.18-.27-.31-.46-.25.09-.43.43-.61.42,0-.06-.05-.08,0-.16-.26.29-.77,0-1.07.38a.36.36,0,0,1,0-.09,1.6,1.6,0,0,1,.05.51c-.15,0-.28.23-.33,0,.09,0,.1-.09.14-.17l-.15.11c-.14-.35.21-.12.21-.38-.3.12-.65.4-.88.3,0-.34.53-.11.23-.41l.35.13c-.27-.54.22,0,0-.54-.47-.1-.53.18-1,.08-.11.18,0,.28-.07.46-.67.34-.53-.85-1-.4-.13.23-.18.66-.53.43l.12-.38c-.45,0-.26.55-.73.29.08-.15.35-.13.29-.17-.31-.31-.22.22-.46.22l-.05-.34c-.48,0-1,.29-1.55.36,0-.1.12-.21,0-.31A4.05,4.05,0,0,1,22,6.6l-.25.3c-.06,0-.11-.14,0-.19-.26-.12,0,.18-.14.3s-.19-.17-.1-.26c-.45.25-1.27.54-1.74.22l.09-.08c-.37-.12-.42.6-.76.32l.07,0c-.8-.13-1.68.14-2.29-.3-.11.42-.78-.19-.84.4-.45-.29-.32-.4-1-.59-.17,0-.26.36-.47.43V6.79l-.29.32-.15-.37-.2.08a.23.23,0,0,1,.15.23.67.67,0,0,1-.76-.37l-.73.26c0-.13.14-.17.23-.25-.39.32-.07-.32-.43,0,.05.07,0,.18,0,.24a1,1,0,0,0-.89-.11l.06-.21c-.54,0-1.14.1-1.76.1a.28.28,0,0,1,0,.5l-.07-.33c-.11.21.19.13-.05.37-.23,0-.15-.37,0-.47l-.28.11c0-.1,0-.15.07-.27-.12.2-.48-.33-.64,0l0-.09c-.61,0-.89.1-1.38.12,0,.28-.21.22-.36.45A4.13,4.13,0,0,0,5.84,6.8c-.31.14-.09.24-.23.41,0-.26-.46-.24-.23-.42A4.36,4.36,0,0,0,4,7.05c.07.1.15.15.11.24S4,7.18,4,7.06L4,7a.21.21,0,0,1-.31,0,.3.3,0,0,1,0-.29c.11-.19.15-.21-.06-.17h0a.57.57,0,0,1-.28-.12c0-.11.19,0,.35,0-.11,0-.16-.21-.17-.33a1.33,1.33,0,0,1,0-.4,1.16,1.16,0,0,0-.06-.75c.38-.22.36-.59.32-1l0-.3c0-.07,0,0,0-.08s0-.06.17,0l-.18-.08c-.17-.12.1,0,.14,0-.14-.08-.16-.06-.25-.14a.53.53,0,0,1-.06-.23A.74.74,0,0,1,4,3.33c.53.1,1.08.22,1.61.29s.27-.92.86-.5l-.16.33c1-.39,1.94,0,2.87-.32-.05.08-.05.18-.14.17.19.24.72,0,.73-.18.14,0,0,.18.12.28s.5-.31.6-.07c0,0,0,.08-.09.1.13-.12.6,0,.48-.25.35.13.67-.13.94,0,.19-.31.6.15.66-.29,0,.45.61.36.84.15-.08.14.19.14.1.33.25,0,.48-.09.44-.32.47.54.94-.44,1.2.26a14.5,14.5,0,0,1,2.12-.52c0,.46-.75,0-.72.52.64-.18,1-.57,1.64-.46.17.06-.09.19-.15.27.64-.18,1.24,0,1.81-.2,0,0-.06.09-.12.12.11,0,.26.07.25-.14L19.82,3c-.18-.3.44-.63.46-.78-.19.59.56.15.26.89a.29.29,0,0,0,.15-.28c.11,0,.14.12,0,.28.4-.11.26-.33.63-.32,0,.1-.08.13-.12.25.19-.19.37-.39.68-.3,0,.06,0,.13-.07.13.52,0,.9-.51,1.48-.33-.18.44.19.15.22.52L23.85,3l-.12-.18c.27,0,.51-.27.75-.15l-.21.16.52-.07-.29-.14c.27-.2,0-.48.33-.37-.07,0,.27,0,.42.22h0c.14-.12.28-.24.48-.15s0,.41,0,.49c.14-.31.64-.08.81-.42a.47.47,0,0,0,0,.32l.11-.25c.13.08.15.12.13.27.38,0-.13-.47.33-.27,0,0,0,.06-.1.1.46.11.88-.16,1.3,0,.12.38-.37.1-.23.41.6-.07,1.25-.45,1.83-.36l-.11,0c.08-.53.43.26.72,0-.07,0-.09.3-.07.24a3.47,3.47,0,0,0,1.42-.3l-.08.14a4.25,4.25,0,0,0,.87.13c.08-.14.22-.12.13-.31.79.77,1.49-.42,2.19.23-.09,0-.2.11-.13.12l.59-.13c-.05-.23-.08-.14-.21-.32a.49.49,0,0,1,.39-.24c-.26.15,0,.37.12.5,0-.07,0-.15,0-.22.31.41.05-.47.47-.19l0,.12c.16-.06.3-.22.47-.19.07.27-.17.13-.18.35.24,0,.47-.51.69-.24-.1.07-.25.07-.35.15.24.31.26.23.44.28h0a.91.91,0,0,1,.27.14l0-.08c.13-.35.3-.38.43-.38a.87.87,0,0,0,.6-.2c-.64.43-.22.25-.47.55a.27.27,0,0,1-.08.26c.17-.14.15-.05.16,0s0,.08.14,0c-.1.09,0,.12-.25.28.07,0,.17-.15.29-.24s.06.23,0,.39-.16.2.07.54.52.56.68,1c-.15.14-.35-.13-.35-.13a.59.59,0,0,0,0,.65c-.08,0-.16,0-.26.07s.35.12.21.36a1.76,1.76,0,0,1-.4-.18c.09.21.28.42.36.64-.17.06-.25-.13-.36-.21.07.25.15.64.42.72l.09-.16c0,.09-.23,0-.28,0-.21-.21.1-.31.2-.32l.06.16c.57-.16-.09-.63-.06-.95l.42.13-.35-.32c.11-.07.34-.12.4,0,.21-.23-.14-.2.08-.4a.06.06,0,0,1,.08,0l-.13-.22c.09,0,.3,0,.24.1.24-.4-.32-.64,0-.79l0,0c-.15-.55-.31,0-.67-.46a3,3,0,0,0,.75-.38h-.3c0-.07,0-.2.16-.22-.21-.18-.14.08-.33,0a.93.93,0,0,0,.1-.57.68.68,0,0,1,.25-.58c-.23.1-.18.44-.34.27.22-.23.24-.34.21-.4-.19.05-.46.2-.51.06.28-.27.49-.13.36-.37-.28.23-.4.2-.52.13s-.26-.19-.42-.14a.4.4,0,0,1-.42.22,2.28,2.28,0,0,0-.6.05c0-.12-.67-.2-1-.33V1.3c-.06.36-.4.29-.65.37a.42.42,0,0,1,.19-.4H35.4a.38.38,0,0,1-.28.22l.06-.28c-.31,0-.62.33-1,.14,0,.26.31.72-.11.89,0-.14,0-.38.08-.43s-.13.11-.2.05l.17-.23c-.18-.1-.1.19-.24.17,0-.19-.11-.14-.09-.29s.13.08.18,0a.63.63,0,0,1-.42-.3c0,.11,0,.26-.12.29-.31,0-.11-.24-.29-.34-.07.14-.27,0-.27.29-.1,0-.11-.14-.15-.22-.16.13-.74,0-.56.35l0,0,0,0h0c-.52.29-1.09-.17-1.61-.05V1.48c-.31.11-.69.06-.91.28a.28.28,0,0,1-.18-.3c-.24.07-.26.18-.61,0,.24-.17-.08-.15.25-.13-.31-.08-.38-.24-.71,0,.11-.25-.23-.32-.38-.24l.22.18a1.41,1.41,0,0,1-.46,0L27.84,1c-.63-.41-1.14.69-1.62,0-.17.23.34.16.19.44-.29-.05-.59-.53-.68-.53-.4-.18-.37.49-.79.36a.4.4,0,0,1-.21.55c-.29,0-.35-.5-.17-.59s.1,0,.1.06.22-.09.1-.22l0,.12c-.14-.12-.54-.11-.45-.3-.22.11-.09.19.07.25-.37-.17-.58,0-1-.12.06.07.11.21.05.21-.56-.15-.25.22-.63.27-.21-.18.08-.43-.3-.28-.24-.12-.05-.31,0-.41-.35.23-.65-.15-.85-.19l.18-.1a.54.54,0,0,1-.29.06l.1.24c-.1-.05-.2-.05-.19-.15-.12.16.08.4-.14.61-.14-.12-.44.13-.49-.18.46.1-.05-.32.34-.37a.34.34,0,0,1-.28,0s0-.06,0-.08c-.44-.28-.2.36-.65.35.06-.18-.11-.34-.18-.3.18,0,.09.3-.08.43-.29-.14-.31.1-.46.09l.17.06c-.06.18-.2.16-.41.21,0-.13.19-.09.12-.15-.23.31-.51-.33-.82-.11-.14-.13,0-.34-.14-.42-.35.23-.38-.24-.75-.05.11.24.13.18-.13.41l.6-.17-.38.35c.18,0,.38-.15.49-.11-.18.19-.17.13-.08.33-.25-.36-.49.21-.78,0V.93c-.43-.26-.77.3-1.33.15l.18.11c-.08.23-.35,0-.53.12,0-.19-.1-.27-.17-.39,0,.15-.42,0-.47.38L14.93,1c-.45-.1-.52.57-.95.5.13-.22-.07-.36.22-.51-.14,0-.27,0-.28.1-.08-.12-.4.26-.53.08-.06.08-.08.29-.25.27a.12.12,0,0,1,0-.09c0,.09-.25.13-.11.35-.45-.62-1.25,0-1.64-.49a7.69,7.69,0,0,1-1,.15c0-.06,0-.1,0-.08-.4-.18-.24.57-.7.36-.23-.32.24-.17.1-.29C9.79.74,9.3,1.48,9,1.1l.07,0c-.23-.22-.57.25-1,.2a.22.22,0,0,0,0-.1A2,2,0,0,1,7,1.69c.11-.25.16-.13.09-.39-.16,0,.05.42-.28.49-.1-.14-.34-.26-.37-.54h.31c-.16-.36-.4,0-.56-.05l0-.16c-.48.05-.48.44-1,.42l0,.11c-.28.39-.23-.21-.51.08l-.08-.4a3.82,3.82,0,0,1-1,.46,1.11,1.11,0,0,1,.45-.36,3.86,3.86,0,0,0,.42-.26,2,2,0,0,0-.38,0c-.13,0-.4.09-.43.18s.23-.13.34-.07a1.41,1.41,0,0,1-1,.46c-.2-.5-.77-.43-1.37-.49,0,.26-.1.47-.3.48a4.58,4.58,0,0,1,0,1.64,5.34,5.34,0,0,1-.1.62,3.32,3.32,0,0,0,0,.55c.6-.27,0,.21.63.17,0,.17,0,.24,0,.25l-.37.53c-.17.13-.13-.16-.27-.15,0,.38-.26.16-.42.41.22,0,.31.14.23.35l.28-.3c.17.26,0,.38-.09.49s-.13.07-.16.24A1,1,0,0,0,1.13,7L.94,6.75c.11.48,0,2,.49,2-.07.14-.24.42-.29.24v.27c1.19,0,2.67-.51,3.12-.23l0,.15c.12,0,.21-.28.36-.13,0,.06,0,.15,0,.16s.33-.26.49-.17l-.14.16c.64.2,1-.41,1.53-.51,0,.44.5.59.75.66v.06c.75.05,1.27-.37,2-.54.43.48,1.46.2,2.15.47-.1-.08,0-.34.14-.39s.45-.3.42.1h0c.12.4.45.29.71.3l0-.52c.68.76,1.79-.29,2.16.4.16-.13.37-.13.53-.26v.28a3.59,3.59,0,0,0,1.24,0l-.11.21c.32,0,.4-.82.69-.84l.09.42c.55,0,1.11.37,1.66,0,0,.06,0,.18-.12.2.27,0,1,.28.92-.3,0,.38.57,0,.87-.13l0,.28c.25-.35.26-.45.61-.55.09,0,.08.22,0,.15.27.15.21-.26.55-.11l-.13.17c.29,0,.27-.07.42-.28a.46.46,0,0,1,.59.33c0-.16.19-.36.36-.29a.17.17,0,0,1-.07.18c.48.19.72-.32,1-.05a.27.27,0,0,0,.06.17,3.3,3.3,0,0,1-.66,0c0,.25.31.3.07.65.24-.19.66-.61,1-.49a.19.19,0,0,1,0,.09l0,0a.2.2,0,0,0,.19,0,.52.52,0,0,0,.25.08c0,.21.35.12.5.13,0-.28.19-.24,0-.47,0,0,0,0-.13,0l-.06,0v0l-.38,0c.12-.15.24-.27.41-.11a4.81,4.81,0,0,1,.22-.45c.21.39.61.6.67.84C26.36,9,27,9,27.29,8.51c.14-.07.15.15.2.24s-.16,0-.2.12c.26-.14.78-.06.85-.43.33.17-.19.34.27.28l-.06.12c.9.59,1.47-1,2.47-.19a.22.22,0,0,1-.12-.13c1.15.34,2.36-.31,3.49.22.32.1.36-.13.55-.31l.07.3.34-.35c.47-.25.82.74,1.42.26l-.08-.2c.22,0,.69-.12.65.11,0,0,.07-.21.16-.1v.16l.53-.28c.41.12-.06.63.54.66.22-.06.63-.46.55-.56a.29.29,0,0,1-.24-.26l.21-.08c0-.47.19-.94-.31-1.27l-.35.28-.11-.22.29,0c-.16-.21-.27,0-.39.11a.4.4,0,0,0-.14-.25l-.35.45c0-.19.16-.37-.07-.47-.16.21.15.41-.11.55C37.18,7,37.23,6.86,37,7a.23.23,0,0,1,.09-.25c-.17.15-.46.07-.55.31-.17-.26-.59.07-.57-.37a.86.86,0,0,1-.47.36c.29-.52-.6,0-.52-.59-.22.47-.78.21-1.17.47,0,0,.07-.11.1-.09-.21,0-.28-.18-.42-.27,0,.39-.36.48-.54.72-.27-.37.16-.46.08-.82,0,.32-.46.32-.37.58-.21-.23-.18-.11-.28-.44,0,.49-.19.09-.36.39-.29-.24-.07-.46-.4-.31C31.5,6.58,31.79,6.4,31.79,6.4Zm-7.66.85h0l.16,0Zm-.64,0h.28c0,.09,0,.19-.07.19S23.58,7.34,23.49,7.26ZM24.85,9.2c-.1,0-.14,0-.15-.07l.18,0v0A.39.39,0,0,1,24.85,9.2Z" transform="translate(-0.81 -0.51)"/><path class="cls-2" d="M25,8.83l0,0L25,8.75l0,.09Z" transform="translate(-0.81 -0.51)"/><path class="cls-2" d="M32.14,1.58h0l0,0A.08.08,0,0,1,32.14,1.58Z" transform="translate(-0.81 -0.51)"/><polygon class="cls-2" points="13.8 6.2 13.8 6.28 13.85 6.21 13.8 6.2"/><path class="cls-2" d="M35.68,2.55a.15.15,0,0,0,0,.07Z" transform="translate(-0.81 -0.51)"/><path class="cls-2" d="M37.21,2.61a.63.63,0,0,1,.17.1A.3.3,0,0,0,37.21,2.61Z" transform="translate(-0.81 -0.51)"/><path class="cls-2" d="M37.89,2.75,38,2.63h0Z" transform="translate(-0.81 -0.51)"/><path class="cls-2" d="M19.68,3.08h-.05C19.53,3.15,19.6,3.13,19.68,3.08Z" transform="translate(-0.81 -0.51)"/><path class="cls-2" d="M25.24,2.42l-.17.14C25.16,2.58,25.24,2.58,25.24,2.42Z" transform="translate(-0.81 -0.51)"/><polygon class="cls-2" points="12.65 2.9 12.65 2.9 12.61 2.9 12.65 2.9"/><path class="cls-2" d="M24.81,2.55a.27.27,0,0,0,.26,0A.39.39,0,0,0,24.81,2.55Z" transform="translate(-0.81 -0.51)"/><path class="cls-2" d="M38.05,6.56v.05h.05Z" transform="translate(-0.81 -0.51)"/><path class="cls-2" d="M38.09,6.62l0,.06S38.12,6.63,38.09,6.62Z" transform="translate(-0.81 -0.51)"/><path class="cls-2" d="M38.19,6.82l-.07-.14C38.12,6.73,38.11,6.79,38.19,6.82Z" transform="translate(-0.81 -0.51)"/><path class="cls-2" d="M38.18,5l-.1,0Z" transform="translate(-0.81 -0.51)"/><path class="cls-2" d="M38.15,4.53c0,.11-.22.28-.15.44h.08C37.93,4.91,38.32,4.63,38.15,4.53Z" transform="translate(-0.81 -0.51)"/><path class="cls-2" d="M39.41,2.23l-.08.55c.11-.13.26-.33.28-.09C39.94,1.82,39.37,2.94,39.41,2.23Z" transform="translate(-0.81 -0.51)"/><path class="cls-2" d="M38.62,1.36c.33-.05.1-.16.14-.22C38.5,1.24,38.45,1.26,38.62,1.36Z" transform="translate(-0.81 -0.51)"/><path class="cls-2" d="M29.36,1.36l0-.26C29.22,1.14,29.38,1.2,29.36,1.36Z" transform="translate(-0.81 -0.51)"/><polygon class="cls-2" points="26.85 2.17 27.01 2.33 27.09 2.09 26.85 2.17"/><polygon class="cls-2" points="25.85 0.34 25.92 0.31 25.64 0.4 25.85 0.34"/><path class="cls-2" d="M11.73,1l0,.31C11.89,1.21,11.91.85,11.73,1Z" transform="translate(-0.81 -0.51)"/><path class="cls-2" d="M5.29,1.27C5.22,1.11,5,1,4.92,1.17,5.07,1.19,5.21,1.31,5.29,1.27Z" transform="translate(-0.81 -0.51)"/><polygon class="cls-2" points="12.09 8.73 11.96 8.84 12.2 8.75 12.09 8.73"/><rect class="cls-1" x="1.62" y="16.2" width="36.5" height="6"/><path class="cls-2" d="M38.26,22.71c.09.05.28,0,.25-.1l-.34-.09Z" transform="translate(-0.81 -0.51)"/><path class="cls-2" d="M38.88,21.88a.83.83,0,0,0-.75-.22c.32.15.18.18.56.34,0,.12-.1.21-.22.19.08,0-.08.19.13.26a.33.33,0,0,0,.06-.58C38.73,21.83,38.81,21.87,38.88,21.88Z" transform="translate(-0.81 -0.51)"/><path class="cls-2" d="M32,16.25l.08,0A.12.12,0,0,0,32,16.25Z" transform="translate(-0.81 -0.51)"/><path class="cls-2" d="M24.58,16.07c.05,0,.08,0,.08-.07S24.56,16,24.58,16.07Z" transform="translate(-0.81 -0.51)"/><path class="cls-2" d="M23.3,15.7l.08,0S23.32,15.68,23.3,15.7Z" transform="translate(-0.81 -0.51)"/><path class="cls-2" d="M32,16.25l-.19-.11C31.83,16.25,32,16.22,32,16.25Z" transform="translate(-0.81 -0.51)"/><path class="cls-2" d="M38.08,20.22a.21.21,0,0,0,.08.11l0-.1Z" transform="translate(-0.81 -0.51)"/><path class="cls-2" d="M35.34,16h.06a1.09,1.09,0,0,0,.05-.14Z" transform="translate(-0.81 -0.51)"/><path class="cls-2" d="M38.13,15.93c-.08,0-.19.27-.26.39a.39.39,0,0,1,.23-.19A.6.6,0,0,0,38.13,15.93Z" transform="translate(-0.81 -0.51)"/><path class="cls-2" d="M39.22,19.65l0,.07Z" transform="translate(-0.81 -0.51)"/><path class="cls-2" d="M33.53,15.92a.87.87,0,0,0,0-.1A.18.18,0,0,0,33.53,15.92Z" transform="translate(-0.81 -0.51)"/><path class="cls-2" d="M36,21.39v.05S36,21.39,36,21.39Z" transform="translate(-0.81 -0.51)"/><polygon class="cls-2" points="38.12 22.27 38.08 22.29 38.07 22.44 38.12 22.27"/><path class="cls-2" d="M21,15.34h0C21,15.31,21,15.32,21,15.34Z" transform="translate(-0.81 -0.51)"/><path class="cls-2" d="M1.27,19.6c.25-.25.32.39.6,0C1.76,19.66,1.43,19.29,1.27,19.6Z" transform="translate(-0.81 -0.51)"/><path class="cls-2" d="M38.11,20.15v-.1A.16.16,0,0,0,38.11,20.15Z" transform="translate(-0.81 -0.51)"/><path class="cls-2" d="M1.87,19.63h0l0,0Z" transform="translate(-0.81 -0.51)"/><path class="cls-2" d="M15.59,15.51a.23.23,0,0,0,.06.12A.43.43,0,0,0,15.59,15.51Z" transform="translate(-0.81 -0.51)"/><path class="cls-2" d="M19.6,15.91l-.1,0A.16.16,0,0,0,19.6,15.91Z" transform="translate(-0.81 -0.51)"/><path class="cls-2" d="M13.51,15.91s-.07-.06-.15,0l0,0S13.45,15.86,13.51,15.91Z" transform="translate(-0.81 -0.51)"/><path class="cls-2" d="M11.35,15.91a.1.1,0,0,0,0,.05h.06Z" transform="translate(-0.81 -0.51)"/><path class="cls-2" d="M29.42,21.53a.77.77,0,0,1,.1.25C29.49,21.58,29.81,21.51,29.42,21.53Z" transform="translate(-0.81 -0.51)"/><path class="cls-2" d="M38.24,20.22c-.08,0-.11,0-.13-.07l0,.08Z" transform="translate(-0.81 -0.51)"/><path class="cls-2" d="M13.42,18.12l-.34,0A1.18,1.18,0,0,0,13.42,18.12Z" transform="translate(-0.81 -0.51)"/><path class="cls-2" d="M13.89,21.57l.08,0A.07.07,0,0,0,13.89,21.57Z" transform="translate(-0.81 -0.51)"/><path class="cls-2" d="M12.06,18.12a.59.59,0,0,0-.2-.19.43.43,0,0,0,0,.07Z" transform="translate(-0.81 -0.51)"/><path class="cls-2" d="M29.52,21.78Z" transform="translate(-0.81 -0.51)"/><path class="cls-2" d="M31.79,21.11c-.33,0-.16.37-.23.58-.39.1-.18-.27-.31-.46-.25.1-.43.43-.61.42,0-.06-.05-.08,0-.16-.26.29-.77,0-1.07.38a.36.36,0,0,1,0-.09,1.62,1.62,0,0,1,.05.51c-.15,0-.28.23-.33,0,.09,0,.1-.09.14-.16l-.15.1c-.14-.35.21-.12.21-.38-.3.12-.65.4-.88.31,0-.34.53-.12.23-.42l.35.13c-.27-.54.22,0,0-.54-.47-.1-.53.18-1,.08-.11.19,0,.28-.07.47-.67.33-.53-.86-1-.41-.13.23-.18.66-.53.43l.12-.38c-.45,0-.26.55-.73.29.08-.15.35-.13.29-.17-.31-.3-.22.22-.46.22l-.05-.34c-.48,0-1,.3-1.55.36,0-.1.12-.21,0-.31A4.05,4.05,0,0,1,22,21.31l-.25.3c-.06,0-.11-.14,0-.19-.26-.11,0,.18-.14.3s-.19-.17-.1-.26c-.45.25-1.27.54-1.74.22l.09-.08c-.37-.12-.42.6-.76.32l.07-.05c-.8-.12-1.68.14-2.29-.3-.11.42-.78-.19-.84.4-.45-.29-.32-.4-1-.59-.17,0-.26.37-.47.43V21.5l-.29.32-.15-.37-.2.08a.23.23,0,0,1,.15.23.66.66,0,0,1-.76-.37l-.73.26c0-.13.14-.17.23-.25-.39.32-.07-.32-.43,0,.05.07,0,.18,0,.24a1,1,0,0,0-.89-.11l.06-.21c-.54-.05-1.14.1-1.76.1.22.1.17.47,0,.5l-.07-.32c-.11.2.19.12-.05.36-.23,0-.15-.37,0-.47l-.28.11c0-.1,0-.15.07-.27-.12.2-.48-.33-.64,0l0-.09c-.61,0-.89.11-1.38.12,0,.28-.21.22-.36.45a4.13,4.13,0,0,0-1.21-.29c-.31.14-.09.24-.23.41,0-.26-.46-.24-.23-.42A4.36,4.36,0,0,0,4,21.76c.07.1.15.15.11.24S4,21.89,4,21.77l0,0a.21.21,0,0,1-.31,0,.3.3,0,0,1,0-.29c.11-.18.15-.21-.06-.17h0a.57.57,0,0,1-.28-.12c0-.11.19,0,.35-.05-.11,0-.16-.21-.17-.33a1.26,1.26,0,0,1,0-.39,1.18,1.18,0,0,0-.06-.76c.38-.22.36-.59.32-1l0-.3c0-.07,0-.05,0-.08s0-.06.17,0l-.18-.08c-.17-.12.1,0,.14,0-.14-.09-.16-.07-.25-.15a.53.53,0,0,1-.06-.23A.74.74,0,0,1,4,18c.53.1,1.08.22,1.61.29s.27-.92.86-.5l-.16.33c1-.39,1.94,0,2.87-.32-.05.08-.05.18-.14.18.19.24.72,0,.73-.19.14,0,0,.18.12.28s.5-.31.6-.07c0,0,0,.08-.09.1.13-.12.6,0,.48-.25.35.13.67-.12.94,0,.19-.31.6.15.66-.29,0,.45.61.37.84.15-.08.14.19.14.1.33.25,0,.48-.09.44-.32.47.54.94-.43,1.2.26a13.24,13.24,0,0,1,2.12-.51c0,.45-.75,0-.72.51.64-.18,1-.57,1.64-.46.17.06-.09.2-.15.27.64-.18,1.24,0,1.81-.2,0,0-.06.09-.12.12.11,0,.26.07.25-.14l-.11.06c-.18-.3.44-.62.46-.78-.19.59.56.15.26.89a.28.28,0,0,0,.15-.27c.11,0,.14.12,0,.27.4-.11.26-.33.63-.32,0,.1-.08.13-.12.25.19-.19.37-.39.68-.3,0,.06,0,.14-.07.13.52,0,.9-.51,1.48-.32-.18.43.19.14.22.51l.31-.11-.12-.18c.27,0,.51-.27.75-.14l-.21.15.52-.07-.29-.14c.27-.2,0-.48.33-.37-.07,0,.27,0,.42.22h0c.14-.11.28-.24.48-.15s0,.42,0,.49c.14-.31.64-.08.81-.41a.44.44,0,0,0,0,.31l.11-.25c.13.08.15.12.13.27.38.05-.13-.47.33-.27,0,0,0,.06-.1.1.46.11.88-.16,1.3,0,.12.38-.37.1-.23.41.6-.06,1.25-.45,1.83-.36l-.11,0c.08-.53.43.26.72,0-.07,0-.09.3-.07.24a3.47,3.47,0,0,0,1.42-.3l-.08.14a4.25,4.25,0,0,0,.87.13c.08-.14.22-.12.13-.31.79.77,1.49-.42,2.19.23-.09,0-.2.12-.13.12l.59-.13c-.05-.23-.08-.14-.21-.32a.49.49,0,0,1,.39-.24c-.26.15,0,.37.12.5,0-.07,0-.15,0-.22.31.41.05-.47.47-.19l0,.12c.16-.06.3-.22.47-.19.07.27-.17.13-.18.35.24,0,.47-.51.69-.24-.1.07-.25.07-.35.15.24.31.26.23.44.28h0a.71.71,0,0,1,.27.15l0-.09c.13-.35.3-.38.43-.38a.82.82,0,0,0,.6-.2c-.64.43-.22.25-.47.55a.27.27,0,0,1-.08.26c.17-.14.15-.05.16,0s0,.08.14,0c-.1.09,0,.12-.25.28.07.05.17-.15.29-.24s.06.23,0,.39-.16.2.07.54.52.56.68,1c-.15.14-.35-.12-.35-.12a.57.57,0,0,0,0,.64c-.08,0-.16,0-.26.07s.35.12.21.36a1.76,1.76,0,0,1-.4-.18c.09.21.28.42.36.64-.17.06-.25-.13-.36-.21.07.25.15.64.42.72l.09-.16c0,.09-.23.05-.28,0-.21-.21.1-.31.2-.32l.06.16c.57-.16-.09-.63-.06-.95l.42.13L38.66,20c.11-.07.34-.12.4,0,.21-.23-.14-.2.08-.4a.06.06,0,0,1,.08,0l-.13-.22c.09.05.3,0,.24.1.24-.4-.32-.64,0-.79l0,0c-.15-.55-.31-.05-.67-.46a3,3,0,0,0,.75-.38h-.3c0-.07,0-.2.16-.22-.21-.17-.14.08-.33,0a.93.93,0,0,0,.1-.57.69.69,0,0,1,.25-.58c-.23.1-.18.44-.34.27.22-.23.24-.33.21-.4-.19.05-.46.2-.51.06.28-.27.49-.13.36-.37-.28.23-.4.2-.52.13s-.26-.19-.42-.14a.4.4,0,0,1-.42.22,2.28,2.28,0,0,0-.6,0c0-.12-.67-.2-1-.33V16c-.06.37-.4.3-.65.37a.44.44,0,0,1,.19-.4H35.4a.38.38,0,0,1-.28.22l.06-.27c-.31,0-.62.32-1,.14,0,.25.31.71-.11.88,0-.14,0-.38.08-.43s-.13.11-.2.05l.17-.23c-.18-.1-.1.2-.24.17,0-.19-.11-.14-.09-.29s.13.08.18,0a.63.63,0,0,1-.42-.3c0,.11,0,.26-.12.29-.31,0-.11-.24-.29-.34-.07.14-.27,0-.27.29-.1,0-.11-.14-.15-.22-.16.13-.74,0-.56.35l0,0,0,0h0c-.52.29-1.09-.17-1.61,0v-.1c-.31.11-.69.06-.91.28a.27.27,0,0,1-.18-.3c-.24.07-.26.18-.61,0,.24-.17-.08-.15.25-.13-.31-.08-.38-.24-.71,0,.11-.25-.23-.32-.38-.24l.22.18a1.18,1.18,0,0,1-.46,0l.08-.33c-.63-.41-1.14.69-1.62,0-.17.23.34.16.19.44-.29-.05-.59-.53-.68-.53-.4-.18-.37.49-.79.36a.4.4,0,0,1-.21.55c-.29,0-.35-.5-.17-.59s.1,0,.1.07.22-.1.1-.23l0,.12c-.14-.12-.54-.11-.45-.3-.22.11-.09.19.07.25-.37-.17-.58,0-1-.12.06.07.11.21.05.21-.56-.15-.25.22-.63.27-.21-.18.08-.43-.3-.28-.24-.12-.05-.31,0-.41-.35.23-.65-.15-.85-.19l.18-.1a.54.54,0,0,1-.29.06l.1.24c-.1,0-.2,0-.19-.14-.12.15.08.39-.14.6-.14-.12-.44.13-.49-.18.46.1-.05-.32.34-.37a.31.31,0,0,1-.28,0s0-.06,0-.08c-.44-.28-.2.36-.65.35.06-.18-.11-.34-.18-.3.18,0,.09.3-.08.43-.29-.14-.31.11-.46.09l.17.06c-.06.18-.2.16-.41.21,0-.13.19-.09.12-.15-.23.31-.51-.32-.82-.11-.14-.12,0-.34-.14-.42-.35.23-.38-.24-.75-.05.11.24.13.18-.13.41l.6-.17-.38.35c.18,0,.38-.15.49-.11-.18.2-.17.14-.08.33-.25-.35-.49.21-.78,0v-.59c-.43-.26-.77.3-1.33.15l.18.11c-.08.23-.35,0-.53.13,0-.2-.1-.27-.17-.4,0,.15-.42,0-.47.38l-.25-.26c-.45-.1-.52.57-.95.5.13-.22-.07-.36.22-.51-.14,0-.27,0-.28.1-.08-.12-.4.27-.53.08-.06.09-.08.29-.25.28a.16.16,0,0,1,0-.1c0,.1-.25.13-.11.35-.45-.62-1.25,0-1.64-.49a7.69,7.69,0,0,1-1,.15c0-.06,0-.1,0-.08-.4-.18-.24.57-.7.36-.23-.32.24-.17.1-.29-.06-.65-.55.09-.85-.29l.07,0c-.23-.22-.57.25-1,.2a.22.22,0,0,0,0-.1A2.1,2.1,0,0,1,7,16.41c.11-.26.16-.14.09-.4-.16,0,.05.42-.28.49-.1-.14-.34-.26-.37-.54h.31c-.16-.36-.4,0-.56,0l0-.16c-.48,0-.48.45-1,.42l0,.12c-.28.38-.23-.22-.51.07L4.69,16a3.82,3.82,0,0,1-1,.46,1.11,1.11,0,0,1,.45-.36,3.86,3.86,0,0,0,.42-.26,2,2,0,0,0-.38,0c-.13,0-.4.09-.43.19s.23-.14.34-.08a1.41,1.41,0,0,1-1,.46c-.2-.5-.77-.43-1.37-.49,0,.26-.1.48-.3.48a4.58,4.58,0,0,1,0,1.64,6,6,0,0,1-.1.63,3.14,3.14,0,0,0,0,.54c.6-.27,0,.21.63.17,0,.17,0,.24,0,.25l-.37.53c-.17.13-.13-.16-.27-.15,0,.38-.26.16-.42.41.22-.05.31.14.23.35l.28-.3c.17.26,0,.38-.09.49s-.13.08-.16.24a1,1,0,0,0,.06.55l-.19-.28c.11.48,0,2,.49,2-.07.14-.24.42-.29.24V24c1.19,0,2.67-.51,3.12-.23l0,.15c.12,0,.21-.28.36-.13,0,.07,0,.15,0,.16s.33-.26.49-.17L4.93,24c.64.19,1-.41,1.53-.52,0,.44.5.59.75.66v.06a5.84,5.84,0,0,0,2-.54c.43.48,1.46.2,2.15.47-.1-.08,0-.34.14-.39s.45-.3.42.1h0c.12.4.45.29.71.31l0-.53c.68.77,1.79-.29,2.16.4.16-.13.37-.13.53-.26V24a3.36,3.36,0,0,0,1.24,0l-.11.21c.32,0,.4-.82.69-.84l.09.43c.55,0,1.11.36,1.66,0,0,.06,0,.18-.12.2.27,0,1,.28.92-.3,0,.38.57,0,.87-.13l0,.28c.25-.35.26-.45.61-.55.09,0,.08.22,0,.15.27.15.21-.26.55-.11l-.13.18c.29,0,.27-.08.42-.29a.46.46,0,0,1,.59.33c0-.16.19-.36.36-.29a.16.16,0,0,1-.07.18c.48.19.72-.32,1-.05a.25.25,0,0,0,.06.17,3.3,3.3,0,0,1-.66,0c0,.25.31.3.07.65.24-.19.66-.61,1-.49a.19.19,0,0,1,0,.09l0,0a.22.22,0,0,0,.19,0,.63.63,0,0,0,.25.07c0,.22.35.12.5.13,0-.28.19-.24,0-.47,0,0,0,0-.13.05l-.06,0v0l-.38,0c.12-.14.24-.26.41-.11.08-.18.17-.36.22-.45.21.39.61.6.67.84.46-.15,1.1-.1,1.39-.63.14-.07.15.15.2.24s-.16,0-.2.12c.26-.14.78-.06.85-.42.33.16-.19.34.27.27l-.06.12c.9.59,1.47-.94,2.47-.19a.22.22,0,0,1-.12-.13c1.15.34,2.36-.31,3.49.22.32.11.36-.13.55-.31l.07.3.34-.35c.47-.25.82.75,1.42.26l-.08-.2c.22,0,.69-.12.65.11,0,0,.07-.21.16-.1v.16l.53-.27c.41.11-.06.62.54.65.22-.06.63-.46.55-.56a.29.29,0,0,1-.24-.26l.21-.08c0-.47.19-.94-.31-1.27l-.35.29-.11-.23h.29c-.16-.22-.27,0-.39.1a.4.4,0,0,0-.14-.25l-.35.45c0-.19.16-.37-.07-.47-.16.21.15.41-.11.55-.17-.21-.12-.39-.32-.2a.22.22,0,0,1,.09-.25c-.17.14-.46.06-.55.3-.17-.26-.59.07-.57-.37a.92.92,0,0,1-.47.37c.29-.53-.6,0-.52-.6-.22.47-.78.21-1.17.47,0,0,.07-.11.1-.09-.21,0-.28-.18-.42-.27,0,.39-.36.48-.54.72-.27-.37.16-.46.08-.82,0,.32-.46.32-.37.58-.21-.23-.18-.11-.28-.44,0,.49-.19.09-.36.39-.29-.24-.07-.46-.4-.31C31.5,21.29,31.79,21.11,31.79,21.11ZM24.13,22h0l.16,0Zm-.64,0h.28c0,.09,0,.19-.07.19S23.58,22.05,23.49,22Zm1.36,1.94c-.1,0-.14,0-.15-.07l.18,0v0A.39.39,0,0,1,24.85,23.91Z" transform="translate(-0.81 -0.51)"/><path class="cls-2" d="M25,23.55l0,0L25,23.46l0,.09Z" transform="translate(-0.81 -0.51)"/><path class="cls-2" d="M32.14,16.29h0l0,0A.08.08,0,0,1,32.14,16.29Z" transform="translate(-0.81 -0.51)"/><polygon class="cls-2" points="13.8 20.91 13.8 20.99 13.85 20.92 13.8 20.91"/><path class="cls-2" d="M35.68,17.26a.15.15,0,0,0,0,.07Z" transform="translate(-0.81 -0.51)"/><path class="cls-2" d="M37.21,17.32a.63.63,0,0,1,.17.1A.3.3,0,0,0,37.21,17.32Z" transform="translate(-0.81 -0.51)"/><path class="cls-2" d="M37.89,17.46l.09-.12h0Z" transform="translate(-0.81 -0.51)"/><path class="cls-2" d="M19.68,17.79h-.05C19.53,17.86,19.6,17.84,19.68,17.79Z" transform="translate(-0.81 -0.51)"/><path class="cls-2" d="M25.24,17.13a.75.75,0,0,1-.17.14C25.16,17.29,25.24,17.29,25.24,17.13Z" transform="translate(-0.81 -0.51)"/><polygon class="cls-2" points="12.65 17.62 12.65 17.61 12.61 17.61 12.65 17.62"/><path class="cls-2" d="M24.81,17.26a.25.25,0,0,0,.26,0A.39.39,0,0,0,24.81,17.26Z" transform="translate(-0.81 -0.51)"/><path class="cls-2" d="M38.05,21.27v.06h.05Z" transform="translate(-0.81 -0.51)"/><path class="cls-2" d="M38.09,21.33l0,.06S38.12,21.34,38.09,21.33Z" transform="translate(-0.81 -0.51)"/><path class="cls-2" d="M38.19,21.53l-.07-.14C38.12,21.44,38.11,21.5,38.19,21.53Z" transform="translate(-0.81 -0.51)"/><path class="cls-2" d="M38.18,19.71l-.1,0Z" transform="translate(-0.81 -0.51)"/><path class="cls-2" d="M38.15,19.24c0,.11-.22.28-.15.44h.08C37.93,19.62,38.32,19.34,38.15,19.24Z" transform="translate(-0.81 -0.51)"/><path class="cls-2" d="M39.41,16.94l-.08.55c.11-.13.26-.33.28-.09C39.94,16.53,39.37,17.65,39.41,16.94Z" transform="translate(-0.81 -0.51)"/><path class="cls-2" d="M38.62,16.07c.33-.05.1-.16.14-.22C38.5,16,38.45,16,38.62,16.07Z" transform="translate(-0.81 -0.51)"/><path class="cls-2" d="M29.36,16.07l0-.26C29.22,15.85,29.38,15.91,29.36,16.07Z" transform="translate(-0.81 -0.51)"/><polygon class="cls-2" points="26.85 16.88 27.01 17.04 27.09 16.8 26.85 16.88"/><polygon class="cls-2" points="25.85 15.06 25.92 15.02 25.64 15.11 25.85 15.06"/><path class="cls-2" d="M11.73,15.66l0,.31C11.89,15.92,11.91,15.56,11.73,15.66Z" transform="translate(-0.81 -0.51)"/><path class="cls-2" d="M5.29,16c-.07-.16-.26-.26-.37-.1C5.07,15.9,5.21,16,5.29,16Z" transform="translate(-0.81 -0.51)"/><polygon class="cls-2" points="12.09 23.44 11.96 23.55 12.2 23.46 12.09 23.44"/><rect class="cls-1" x="1.62" y="31.2" width="36.5" height="6"/><path class="cls-2" d="M38.26,37.71c.09,0,.28,0,.25-.1l-.34-.09Z" transform="translate(-0.81 -0.51)"/><path class="cls-2" d="M38.88,36.88a.83.83,0,0,0-.75-.22c.32.15.18.18.56.34,0,.12-.1.21-.22.19.08,0-.08.19.13.26a.33.33,0,0,0,.06-.58C38.73,36.83,38.81,36.87,38.88,36.88Z" transform="translate(-0.81 -0.51)"/><path class="cls-2" d="M32,31.25l.08,0A.12.12,0,0,0,32,31.25Z" transform="translate(-0.81 -0.51)"/><path class="cls-2" d="M24.58,31.07c.05,0,.08,0,.08-.07S24.56,31,24.58,31.07Z" transform="translate(-0.81 -0.51)"/><path class="cls-2" d="M23.3,30.7l.08,0S23.32,30.68,23.3,30.7Z" transform="translate(-0.81 -0.51)"/><path class="cls-2" d="M32,31.25l-.19-.11C31.83,31.25,32,31.22,32,31.25Z" transform="translate(-0.81 -0.51)"/><path class="cls-2" d="M38.08,35.22a.21.21,0,0,0,.08.11l0-.1Z" transform="translate(-0.81 -0.51)"/><path class="cls-2" d="M35.34,31h.06a1.09,1.09,0,0,0,.05-.14Z" transform="translate(-0.81 -0.51)"/><path class="cls-2" d="M38.13,30.93c-.08,0-.19.27-.26.39a.39.39,0,0,1,.23-.19A.6.6,0,0,0,38.13,30.93Z" transform="translate(-0.81 -0.51)"/><path class="cls-2" d="M39.22,34.65l0,.07Z" transform="translate(-0.81 -0.51)"/><path class="cls-2" d="M33.53,30.92a.87.87,0,0,0,0-.1A.18.18,0,0,0,33.53,30.92Z" transform="translate(-0.81 -0.51)"/><path class="cls-2" d="M36,36.39v0S36,36.39,36,36.39Z" transform="translate(-0.81 -0.51)"/><polygon class="cls-2" points="38.12 37.27 38.08 37.29 38.07 37.44 38.12 37.27"/><path class="cls-2" d="M21,30.34h0C21,30.31,21,30.32,21,30.34Z" transform="translate(-0.81 -0.51)"/><path class="cls-2" d="M1.27,34.6c.25-.25.32.39.6,0C1.76,34.66,1.43,34.29,1.27,34.6Z" transform="translate(-0.81 -0.51)"/><path class="cls-2" d="M38.11,35.15v-.1A.16.16,0,0,0,38.11,35.15Z" transform="translate(-0.81 -0.51)"/><path class="cls-2" d="M1.87,34.63h0l0,0Z" transform="translate(-0.81 -0.51)"/><path class="cls-2" d="M15.59,30.51a.23.23,0,0,0,.06.12A.43.43,0,0,0,15.59,30.51Z" transform="translate(-0.81 -0.51)"/><path class="cls-2" d="M19.6,30.91l-.1,0A.16.16,0,0,0,19.6,30.91Z" transform="translate(-0.81 -0.51)"/><path class="cls-2" d="M13.51,30.91s-.07-.06-.15,0l0,0S13.45,30.86,13.51,30.91Z" transform="translate(-0.81 -0.51)"/><path class="cls-2" d="M11.35,30.91a.1.1,0,0,0,0,.05h.06Z" transform="translate(-0.81 -0.51)"/><path class="cls-2" d="M29.42,36.53a.77.77,0,0,1,.1.25C29.49,36.58,29.81,36.51,29.42,36.53Z" transform="translate(-0.81 -0.51)"/><path class="cls-2" d="M38.24,35.22c-.08,0-.11,0-.13-.07l0,.08Z" transform="translate(-0.81 -0.51)"/><path class="cls-2" d="M13.42,33.12l-.34,0A1.18,1.18,0,0,0,13.42,33.12Z" transform="translate(-0.81 -0.51)"/><path class="cls-2" d="M13.89,36.57l.08,0A.07.07,0,0,0,13.89,36.57Z" transform="translate(-0.81 -0.51)"/><path class="cls-2" d="M12.06,33.12a.59.59,0,0,0-.2-.19.43.43,0,0,0,0,.07Z" transform="translate(-0.81 -0.51)"/><path class="cls-2" d="M29.52,36.78Z" transform="translate(-0.81 -0.51)"/><path class="cls-2" d="M31.79,36.11c-.33,0-.16.37-.23.58-.39.1-.18-.27-.31-.46-.25.1-.43.43-.61.42,0-.06-.05-.08,0-.16-.26.29-.77,0-1.07.38a.36.36,0,0,1,0-.09,1.62,1.62,0,0,1,.05.51c-.15,0-.28.23-.33,0,.09,0,.1-.09.14-.16l-.15.1c-.14-.35.21-.12.21-.38-.3.12-.65.4-.88.31,0-.34.53-.12.23-.42l.35.13c-.27-.54.22,0,0-.54-.47-.1-.53.18-1,.08-.11.19,0,.28-.07.47-.67.33-.53-.86-1-.41-.13.23-.18.66-.53.43l.12-.38c-.45,0-.26.55-.73.29.08-.15.35-.13.29-.17-.31-.3-.22.22-.46.22l-.05-.34c-.48.05-1,.3-1.55.36,0-.1.12-.21,0-.31A4.05,4.05,0,0,1,22,36.31l-.25.3c-.06,0-.11-.14,0-.19-.26-.11,0,.18-.14.3s-.19-.17-.1-.26c-.45.25-1.27.54-1.74.22l.09-.08c-.37-.12-.42.6-.76.32l.07-.05c-.8-.12-1.68.14-2.29-.3-.11.42-.78-.19-.84.4-.45-.29-.32-.4-1-.59-.17,0-.26.37-.47.43V36.5l-.29.32-.15-.37-.2.08a.23.23,0,0,1,.15.23.66.66,0,0,1-.76-.37l-.73.26c0-.13.14-.17.23-.25-.39.32-.07-.32-.43,0,.05.07,0,.18,0,.24a1,1,0,0,0-.89-.11l.06-.21c-.54,0-1.14.1-1.76.1.22.1.17.47,0,.5l-.07-.32c-.11.2.19.12-.05.36-.23,0-.15-.37,0-.47l-.28.11c0-.1,0-.15.07-.27-.12.2-.48-.33-.64,0l0-.09c-.61,0-.89.11-1.38.12,0,.28-.21.22-.36.45a4.13,4.13,0,0,0-1.21-.29c-.31.14-.09.24-.23.41,0-.26-.46-.24-.23-.42A4.36,4.36,0,0,0,4,36.76c.07.1.15.15.11.24S4,36.89,4,36.77l0,0a.21.21,0,0,1-.31,0,.3.3,0,0,1,0-.29c.11-.18.15-.21-.06-.17h0a.57.57,0,0,1-.28-.12c0-.11.19,0,.35,0-.11,0-.16-.21-.17-.33a1.26,1.26,0,0,1,0-.39,1.18,1.18,0,0,0-.06-.76c.38-.22.36-.59.32-1l0-.3c0-.07,0,0,0-.08s0-.06.17,0l-.18-.08c-.17-.12.1,0,.14,0-.14-.09-.16-.07-.25-.15a.53.53,0,0,1-.06-.23A.74.74,0,0,1,4,33c.53.1,1.08.22,1.61.29s.27-.92.86-.5l-.16.33c1-.39,1.94,0,2.87-.32-.05.08-.05.18-.14.18.19.24.72,0,.73-.19.14,0,0,.18.12.28s.5-.31.6-.07c0,0,0,.08-.09.1.13-.12.6,0,.48-.25.35.13.67-.12.94,0,.19-.31.6.15.66-.29,0,.45.61.37.84.15-.08.14.19.14.1.33.25,0,.48-.09.44-.32.47.54.94-.43,1.2.26a13.24,13.24,0,0,1,2.12-.51c0,.45-.75,0-.72.51.64-.18,1-.57,1.64-.46.17.06-.09.2-.15.27.64-.18,1.24,0,1.81-.2,0,0-.06.09-.12.12.11,0,.26.07.25-.14l-.11.06c-.18-.3.44-.62.46-.78-.19.59.56.15.26.89a.28.28,0,0,0,.15-.27c.11,0,.14.12,0,.27.4-.11.26-.33.63-.32,0,.1-.08.13-.12.25.19-.19.37-.39.68-.3,0,.06,0,.14-.07.13.52,0,.9-.51,1.48-.32-.18.43.19.14.22.51l.31-.11-.12-.18c.27,0,.51-.27.75-.14l-.21.15.52-.07-.29-.14c.27-.2,0-.48.33-.37-.07,0,.27,0,.42.22h0c.14-.11.28-.24.48-.15s0,.42,0,.49c.14-.31.64-.08.81-.41a.44.44,0,0,0,0,.31l.11-.25c.13.08.15.12.13.27.38,0-.13-.47.33-.27,0,0,0,.06-.1.1.46.11.88-.16,1.3,0,.12.38-.37.1-.23.41.6-.06,1.25-.45,1.83-.36l-.11,0c.08-.53.43.26.72,0-.07,0-.09.3-.07.24a3.47,3.47,0,0,0,1.42-.3l-.08.14a4.25,4.25,0,0,0,.87.13c.08-.14.22-.12.13-.31.79.77,1.49-.42,2.19.23-.09,0-.2.12-.13.12l.59-.13c-.05-.23-.08-.14-.21-.32a.49.49,0,0,1,.39-.24c-.26.15,0,.37.12.5,0-.07,0-.15,0-.22.31.41.05-.47.47-.19l0,.12c.16-.06.3-.22.47-.19.07.27-.17.13-.18.35.24,0,.47-.51.69-.24-.1.07-.25.07-.35.15.24.31.26.23.44.28h0a.71.71,0,0,1,.27.15l0-.09c.13-.35.3-.38.43-.38a.82.82,0,0,0,.6-.2c-.64.43-.22.25-.47.55a.27.27,0,0,1-.08.26c.17-.14.15-.05.16,0s0,.08.14,0c-.1.09,0,.12-.25.28.07.05.17-.15.29-.24s.06.23,0,.39-.16.2.07.54.52.56.68,1c-.15.14-.35-.12-.35-.12a.57.57,0,0,0,0,.64c-.08,0-.16,0-.26.07s.35.12.21.36a1.76,1.76,0,0,1-.4-.18c.09.21.28.42.36.64-.17.06-.25-.13-.36-.21.07.25.15.64.42.72l.09-.16c0,.09-.23,0-.28,0-.21-.21.1-.31.2-.32l.06.16c.57-.16-.09-.63-.06-1l.42.13L38.66,35c.11-.07.34-.12.4,0,.21-.23-.14-.2.08-.4a.06.06,0,0,1,.08,0l-.13-.22c.09,0,.3,0,.24.1.24-.4-.32-.64,0-.79l0,0c-.15-.55-.31-.05-.67-.46a3,3,0,0,0,.75-.38h-.3c0-.07,0-.2.16-.22-.21-.17-.14.08-.33,0a.93.93,0,0,0,.1-.57.69.69,0,0,1,.25-.58c-.23.1-.18.44-.34.27.22-.23.24-.33.21-.4-.19.05-.46.2-.51.06.28-.27.49-.13.36-.37-.28.23-.4.2-.52.13s-.26-.19-.42-.14a.4.4,0,0,1-.42.22,2.28,2.28,0,0,0-.6,0c0-.12-.67-.2-1-.33V31c-.06.37-.4.3-.65.37a.44.44,0,0,1,.19-.4H35.4a.38.38,0,0,1-.28.22l.06-.27c-.31,0-.62.32-1,.14,0,.25.31.71-.11.88,0-.14,0-.38.08-.43s-.13.11-.2.05l.17-.23c-.18-.1-.1.2-.24.17,0-.19-.11-.14-.09-.29s.13.08.18,0a.63.63,0,0,1-.42-.3c0,.11,0,.26-.12.29-.31,0-.11-.24-.29-.34-.07.14-.27,0-.27.29-.1,0-.11-.14-.15-.22-.16.13-.74,0-.56.35l0,0,0,0h0c-.52.29-1.09-.17-1.61,0v-.1c-.31.11-.69.06-.91.28a.27.27,0,0,1-.18-.3c-.24.07-.26.18-.61,0,.24-.17-.08-.15.25-.13-.31-.08-.38-.24-.71,0,.11-.25-.23-.32-.38-.24l.22.18a1.18,1.18,0,0,1-.46,0l.08-.33c-.63-.41-1.14.69-1.62,0-.17.23.34.16.19.44-.29-.05-.59-.53-.68-.53-.4-.18-.37.49-.79.36a.4.4,0,0,1-.21.55c-.29,0-.35-.5-.17-.59s.1,0,.1.07.22-.1.1-.23l0,.12c-.14-.12-.54-.11-.45-.3-.22.11-.09.19.07.25-.37-.17-.58,0-1-.12.06.07.11.21.05.21-.56-.15-.25.22-.63.27-.21-.18.08-.43-.3-.28-.24-.12-.05-.31,0-.41-.35.23-.65-.15-.85-.19l.18-.1a.54.54,0,0,1-.29.06l.1.24c-.1-.05-.2-.05-.19-.14-.12.15.08.39-.14.6-.14-.12-.44.13-.49-.18.46.1-.05-.32.34-.37a.31.31,0,0,1-.28,0s0-.06,0-.08c-.44-.28-.2.36-.65.35.06-.18-.11-.34-.18-.3.18,0,.09.3-.08.43-.29-.14-.31.11-.46.09l.17.06c-.06.18-.2.16-.41.21,0-.13.19-.09.12-.15-.23.31-.51-.32-.82-.11-.14-.12,0-.34-.14-.42-.35.23-.38-.24-.75-.05.11.24.13.18-.13.41l.6-.17-.38.35c.18,0,.38-.15.49-.11-.18.2-.17.14-.08.33-.25-.35-.49.21-.78,0v-.59c-.43-.26-.77.3-1.33.15l.18.11c-.08.23-.35,0-.53.13,0-.2-.1-.27-.17-.4,0,.15-.42,0-.47.38l-.25-.26c-.45-.1-.52.57-.95.5.13-.22-.07-.36.22-.51-.14,0-.27,0-.28.1-.08-.12-.4.27-.53.08-.06.09-.08.29-.25.28a.16.16,0,0,1,0-.1c0,.1-.25.13-.11.35-.45-.62-1.25,0-1.64-.49a7.69,7.69,0,0,1-1,.15c0-.06,0-.1,0-.08-.4-.18-.24.57-.7.36-.23-.32.24-.17.1-.29-.06-.65-.55.09-.85-.29l.07,0c-.23-.22-.57.25-1,.2a.22.22,0,0,0,0-.1A2.1,2.1,0,0,1,7,31.41c.11-.26.16-.14.09-.4-.16,0,.05.42-.28.49-.1-.14-.34-.26-.37-.54h.31c-.16-.36-.4,0-.56-.05l0-.16c-.48.05-.48.45-1,.42l0,.12c-.28.38-.23-.22-.51.07L4.69,31a3.82,3.82,0,0,1-1,.46,1.11,1.11,0,0,1,.45-.36,3.86,3.86,0,0,0,.42-.26,2,2,0,0,0-.38,0c-.13,0-.4.09-.43.19s.23-.14.34-.08a1.41,1.41,0,0,1-1,.46c-.2-.5-.77-.43-1.37-.49,0,.26-.1.48-.3.48a4.58,4.58,0,0,1,0,1.64,6,6,0,0,1-.1.63,3.14,3.14,0,0,0,0,.54c.6-.27,0,.21.63.17,0,.17,0,.24,0,.25l-.37.53c-.17.13-.13-.16-.27-.15,0,.38-.26.16-.42.41.22,0,.31.14.23.35l.28-.3c.17.26,0,.38-.09.49s-.13.08-.16.24a1,1,0,0,0,.06.55l-.19-.28c.11.48,0,2,.49,2-.07.14-.24.42-.29.24V39c1.19,0,2.67-.51,3.12-.23l0,.15c.12,0,.21-.28.36-.13,0,.07,0,.15,0,.16s.33-.26.49-.17L4.93,39c.64.19,1-.41,1.53-.52,0,.44.5.59.75.66v.06a5.84,5.84,0,0,0,2-.54c.43.48,1.46.2,2.15.47-.1-.08,0-.34.14-.39s.45-.3.42.1h0c.12.4.45.29.71.31l0-.53c.68.77,1.79-.29,2.16.4.16-.13.37-.13.53-.26V39a3.36,3.36,0,0,0,1.24,0l-.11.21c.32,0,.4-.82.69-.84l.09.43c.55,0,1.11.36,1.66,0,0,.06,0,.18-.12.2.27,0,1,.28.92-.3,0,.38.57,0,.87-.13l0,.28c.25-.35.26-.45.61-.55.09,0,.08.22,0,.15.27.15.21-.26.55-.11l-.13.18c.29,0,.27-.08.42-.29a.46.46,0,0,1,.59.33c0-.16.19-.36.36-.29a.16.16,0,0,1-.07.18c.48.19.72-.32,1-.05a.25.25,0,0,0,.06.17,3.3,3.3,0,0,1-.66,0c0,.25.31.3.07.65.24-.19.66-.61,1-.49a.19.19,0,0,1,0,.09l0,0a.22.22,0,0,0,.19,0,.63.63,0,0,0,.25.07c0,.22.35.12.5.13,0-.28.19-.24,0-.47,0,0,0,0-.13,0l-.06,0v0l-.38,0c.12-.14.24-.26.41-.11.08-.18.17-.36.22-.45.21.39.61.6.67.84.46-.15,1.1-.1,1.39-.63.14-.07.15.15.2.24s-.16,0-.2.12c.26-.14.78-.06.85-.42.33.16-.19.34.27.27l-.06.12c.9.59,1.47-.94,2.47-.19a.22.22,0,0,1-.12-.13c1.15.34,2.36-.31,3.49.22.32.11.36-.13.55-.31l.07.3.34-.35c.47-.25.82.75,1.42.26l-.08-.2c.22,0,.69-.12.65.11,0,0,.07-.21.16-.1v.16l.53-.27c.41.11-.06.62.54.65.22-.06.63-.46.55-.56a.29.29,0,0,1-.24-.26l.21-.08c0-.47.19-.94-.31-1.27l-.35.29-.11-.23h.29c-.16-.22-.27,0-.39.1a.4.4,0,0,0-.14-.25l-.35.45c0-.19.16-.37-.07-.47-.16.21.15.41-.11.55-.17-.21-.12-.39-.32-.2a.22.22,0,0,1,.09-.25c-.17.14-.46.06-.55.3-.17-.26-.59.07-.57-.37a.92.92,0,0,1-.47.37c.29-.53-.6,0-.52-.6-.22.47-.78.21-1.17.47,0,0,.07-.11.1-.09-.21,0-.28-.18-.42-.27,0,.39-.36.48-.54.72-.27-.37.16-.46.08-.82,0,.32-.46.32-.37.58-.21-.23-.18-.11-.28-.44,0,.49-.19.09-.36.39-.29-.24-.07-.46-.4-.31C31.5,36.29,31.79,36.11,31.79,36.11ZM24.13,37h0l.16,0Zm-.64,0h.28c0,.09,0,.19-.07.19S23.58,37.05,23.49,37Zm1.36,1.94c-.1,0-.14,0-.15-.07l.18,0v0A.39.39,0,0,1,24.85,38.91Z" transform="translate(-0.81 -0.51)"/><path class="cls-2" d="M25,38.55l0,0L25,38.46l0,.09Z" transform="translate(-0.81 -0.51)"/><path class="cls-2" d="M32.14,31.29h0l0,0A.08.08,0,0,1,32.14,31.29Z" transform="translate(-0.81 -0.51)"/><polygon class="cls-2" points="13.8 35.91 13.8 35.99 13.85 35.92 13.8 35.91"/><path class="cls-2" d="M35.68,32.26a.15.15,0,0,0,0,.07Z" transform="translate(-0.81 -0.51)"/><path class="cls-2" d="M37.21,32.32a.63.63,0,0,1,.17.1A.3.3,0,0,0,37.21,32.32Z" transform="translate(-0.81 -0.51)"/><path class="cls-2" d="M37.89,32.46l.09-.12h0Z" transform="translate(-0.81 -0.51)"/><path class="cls-2" d="M19.68,32.79h-.05C19.53,32.86,19.6,32.84,19.68,32.79Z" transform="translate(-0.81 -0.51)"/><path class="cls-2" d="M25.24,32.13a.75.75,0,0,1-.17.14C25.16,32.29,25.24,32.29,25.24,32.13Z" transform="translate(-0.81 -0.51)"/><polygon class="cls-2" points="12.65 32.62 12.65 32.61 12.61 32.61 12.65 32.62"/><path class="cls-2" d="M24.81,32.26a.25.25,0,0,0,.26,0A.39.39,0,0,0,24.81,32.26Z" transform="translate(-0.81 -0.51)"/><path class="cls-2" d="M38.05,36.27v.06h.05Z" transform="translate(-0.81 -0.51)"/><path class="cls-2" d="M38.09,36.33l0,.06S38.12,36.34,38.09,36.33Z" transform="translate(-0.81 -0.51)"/><path class="cls-2" d="M38.19,36.53l-.07-.14S38.11,36.5,38.19,36.53Z" transform="translate(-0.81 -0.51)"/><path class="cls-2" d="M38.18,34.71l-.1,0Z" transform="translate(-0.81 -0.51)"/><path class="cls-2" d="M38.15,34.24c0,.11-.22.28-.15.44h.08C37.93,34.62,38.32,34.34,38.15,34.24Z" transform="translate(-0.81 -0.51)"/><path class="cls-2" d="M39.41,31.94l-.08.55c.11-.13.26-.33.28-.09C39.94,31.53,39.37,32.65,39.41,31.94Z" transform="translate(-0.81 -0.51)"/><path class="cls-2" d="M38.62,31.07c.33-.05.1-.16.14-.22C38.5,31,38.45,31,38.62,31.07Z" transform="translate(-0.81 -0.51)"/><path class="cls-2" d="M29.36,31.07l0-.26C29.22,30.85,29.38,30.91,29.36,31.07Z" transform="translate(-0.81 -0.51)"/><polygon class="cls-2" points="26.85 31.88 27.01 32.04 27.09 31.8 26.85 31.88"/><polygon class="cls-2" points="25.85 30.06 25.92 30.02 25.64 30.11 25.85 30.06"/><path class="cls-2" d="M11.73,30.66l0,.31C11.89,30.92,11.91,30.56,11.73,30.66Z" transform="translate(-0.81 -0.51)"/><path class="cls-2" d="M5.29,31c-.07-.16-.26-.26-.37-.1C5.07,30.9,5.21,31,5.29,31Z" transform="translate(-0.81 -0.51)"/><polygon class="cls-2" points="12.09 38.44 11.96 38.55 12.2 38.46 12.09 38.44"/></svg>