<svg id="Layer_1" data-name="Layer 1" xmlns="http://www.w3.org/2000/svg" viewBox="0 0 165.19 27.21"><defs><style>.cls-1{font-size:23.28px;font-family:AlverataIrregularLt, Alverata Irregular;}.cls-1,.cls-3{fill:#231f20;}.cls-2{letter-spacing:-0.01em;}</style></defs><text class="cls-1" transform="translate(0 19.94)">Rosie</text><text class="cls-1" transform="translate(70.79 19.94)"><tspan class="cls-2">H</tspan><tspan x="17.11" y="0">art</tspan></text><path class="cls-3" d="M169.78,14.3,171,13a10.48,10.48,0,0,1,1.91-1.14,7.43,7.43,0,0,1,4.82-.14A3.85,3.85,0,0,1,179.86,13l.5.63a7.07,7.07,0,0,1,.74,3.54L181,18.4a10.11,10.11,0,0,1-.9,2.68,10.84,10.84,0,0,1-1.65,2l-1.23,1.07s-1.63,1.24-2.11,1.63l-6,3.71-.58.36V16.34A6.07,6.07,0,0,1,169.78,14.3Z" transform="translate(-15.92 -9.01)"/><path class="cls-3" d="M167.2,14.3,166,13a10.57,10.57,0,0,0-1.92-1.14,7.43,7.43,0,0,0-4.82-.14A3.89,3.89,0,0,0,157.12,13l-.5.63a7.17,7.17,0,0,0-.73,3.54L156,18.4a10.41,10.41,0,0,0,.89,2.68,11.25,11.25,0,0,0,1.65,2l1.24,1.07s1.63,1.24,2.1,1.63l6,3.71.58.36V16.34A5.85,5.85,0,0,0,167.2,14.3Z" transform="translate(-15.92 -9.01)"/></svg>
