<svg id="Layer_1" data-name="Layer 1" xmlns="http://www.w3.org/2000/svg" viewBox="0 0 163.33 19.22"><defs><style>.cls-1{fill:#fff;}</style></defs><path class="cls-1" d="M29,29s-.61-.05-1.58-.05-1.54.05-1.54.05a.91.91,0,0,0,.23-.7c0-3.05-2.07-7-4.65-7.64,2.14-.16,4.23-.9,4.23-3.89,0-2.81-1.77-3.14-3.95-3.14-.63,0-1.22.05-1.22.05v7.71c0,5.86.1,6.28.59,7.21l.21.4s-.49-.05-1.75-.05-1.79.05-1.79.05l.21-.4c.44-.83.58-1,.58-8,0-6.78-.09-6.87-.58-7.8l-.21-.4s.63.05,1.53.05c.68,0,1.61-.05,2.29-.05,3.33,0,6.28.47,6.28,4.24a4.09,4.09,0,0,1-3.56,4.26C28,22.25,28,28,28.82,28.79Z" transform="translate(-17.79 -10.63)"/><path class="cls-1" d="M37,29.28c-4.24-.39-6-3.51-6-6.87a6.59,6.59,0,0,1,6.15-6.89c4.23.4,6,3.52,6,6.87A6.58,6.58,0,0,1,37,29.28Zm.17-12.53c-1.75.31-4,1.63-4,5.66s2.1,5.34,3.84,5.64c1.75-.3,4-1.63,4-5.66S38.88,17.06,37.14,16.75Z" transform="translate(-17.79 -10.63)"/><path class="cls-1" d="M49.45,29.07a6.54,6.54,0,0,1-3.16-.7s0-.44,0-1.3,0-1.42,0-1.42c.86,1.26,1.67,2.23,3.23,2.23.65,0,2.28-.06,2.28-1.81,0-1.1-.67-1.58-1.91-2.31l-1.58-.93c-1.42-.84-2.4-1.77-2.4-3.54,0-1.56.79-3.72,4.47-3.72a7.32,7.32,0,0,1,3.33.7s0,.44,0,1.3,0,1.47,0,1.47c-.86-1.26-1.6-2.24-3.4-2.24-2.09,0-2.51,1.1-2.51,2.07A2.32,2.32,0,0,0,49.22,21l2.12,1.28a3.62,3.62,0,0,1,2.26,3.38C53.6,28.12,51.85,29.07,49.45,29.07Z" transform="translate(-17.79 -10.63)"/><path class="cls-1" d="M59,29.05c-1.26,0-1.47-.7-1.47-1.79,0-1.33.07-3.71.07-5.29,0-4-.21-4.68-.58-5.35l-.21-.4,2.87-.58A51.59,51.59,0,0,0,59.49,22v2.7c0,2.89.14,3.44,1.09,4C60.58,28.65,60.21,29.05,59,29.05Zm1.26-16.72L58.6,14l-1.67-1.7,1.67-1.7Z" transform="translate(-17.79 -10.63)"/><path class="cls-1" d="M68.12,23.18a13.44,13.44,0,0,1-2.88-.3c0,2.14.79,4.84,4,4.84s4-1.67,4-1.67c0,1.65-1.17,3.16-4.38,3.16-4.08,0-5.7-2.86-5.7-6.59,0-5.87,3.07-7.08,5.49-7.08,3.33,0,4.77,1.54,4.77,3.64C73.43,22.2,71.41,23.18,68.12,23.18Zm.49-6.4c-1.72,0-3.37.74-3.37,4.89a11.31,11.31,0,0,0,2.81.25c1.1,0,3.24-.11,3.24-2.56C71.29,18.5,71.15,16.78,68.61,16.78Z" transform="translate(-17.79 -10.63)"/><path class="cls-1" d="M102.2,29s-.51-.05-1.77-.05-1.8.05-1.8.05l.21-.4c.45-.86.59-1.09.59-7.42H91.35c0,6.35.09,6.52.58,7.42l.21.4s-.51-.05-1.77-.05-1.79.05-1.79.05l.21-.4c.46-.88.58-1,.58-8,0-6.78-.1-6.87-.58-7.8l-.21-.4s.51.05,1.77.05,1.79-.05,1.79-.05l-.21.4c-.44.84-.58,1.07-.58,6.87h8.08c0-5.75-.12-6-.59-6.87l-.21-.4s.52.05,1.77.05,1.8-.05,1.8-.05l-.21.4c-.47.88-.58,1.05-.58,8,0,6.78.09,6.87.58,7.8Z" transform="translate(-17.79 -10.63)"/><path class="cls-1" d="M115.49,28.56l-2.61.58.1-2.75a3.47,3.47,0,0,1-3.8,2.85c-3.33,0-4.07-2.22-4.07-3.78,0-3.89,3.28-4.12,5.42-4.12a21.71,21.71,0,0,1,2.33.12V20.27a4.43,4.43,0,0,0-.44-2.49,2.75,2.75,0,0,0-2.4-.91,3.84,3.84,0,0,0-3.56,1.75s0-.51,0-1.26,0-1.19,0-1.19a8.41,8.41,0,0,1,3.79-.63c2.33,0,3.33.66,3.82,1.31.7.91.7,2,.7,3.51,0,.31,0,2,0,4.5a6.41,6.41,0,0,0,.56,3.3Zm-2.63-5.77a12.5,12.5,0,0,0-2.1-.12c-1.37,0-3.63.09-3.63,2.58a2.36,2.36,0,0,0,2.63,2.54c2.54,0,3.1-1.56,3.1-1.56Z" transform="translate(-17.79 -10.63)"/><path class="cls-1" d="M123.55,17a3.51,3.51,0,0,0-2.12.77v4.92c0,5.07.23,5.26.58,5.93l.21.4s-.47-.05-1.72-.05-1.75.05-1.75.05l.21-.4c.35-.67.58-.86.58-5.93v-.82a47.12,47.12,0,0,0-.23-6.29l1.77,1a6.09,6.09,0,0,1,3.28-1,3.53,3.53,0,0,1,1.89.42s0,.54,0,1.35,0,1.47,0,1.47C125.6,17.76,125,17,123.55,17Z" transform="translate(-17.79 -10.63)"/><path class="cls-1" d="M131.58,29.19A2.6,2.6,0,0,1,129.13,28c-.34-.55-.48-1.21-.48-2.93,0-6.15.07-8,.07-8h-1.49a7.39,7.39,0,0,0,1.53-1.86A12,12,0,0,0,129.88,13h.72v2.93h1.58a5.36,5.36,0,0,0,2.29-.25s0,.3,0,.86,0,.84,0,.84a5.37,5.37,0,0,0-2.29-.24H130.6v8.15a3.82,3.82,0,0,0,.3,1.87,1.66,1.66,0,0,0,1.66.84,2.74,2.74,0,0,0,1.95-.7S134.51,29.19,131.58,29.19Z" transform="translate(-17.79 -10.63)"/><path class="cls-1" d="M169.78,14.3,171,13a10.48,10.48,0,0,1,1.91-1.14,7.43,7.43,0,0,1,4.82-.14A3.85,3.85,0,0,1,179.86,13l.5.63a7.07,7.07,0,0,1,.74,3.54L181,18.4a10.11,10.11,0,0,1-.9,2.68,10.84,10.84,0,0,1-1.65,2l-1.23,1.07s-1.63,1.24-2.11,1.63l-6,3.71-.58.36V16.34A6.07,6.07,0,0,1,169.78,14.3Z" transform="translate(-17.79 -10.63)"/><path class="cls-1" d="M167.2,14.3,166,13a10.57,10.57,0,0,0-1.92-1.14,7.43,7.43,0,0,0-4.82-.14A3.89,3.89,0,0,0,157.12,13l-.5.63a7.17,7.17,0,0,0-.73,3.54L156,18.4a10.41,10.41,0,0,0,.89,2.68,11.25,11.25,0,0,0,1.65,2l1.24,1.07s1.63,1.24,2.1,1.63l6,3.71.58.36V16.34A5.85,5.85,0,0,0,167.2,14.3Z" transform="translate(-17.79 -10.63)"/></svg>
