<svg id="Layer_1" data-name="Layer 1" xmlns="http://www.w3.org/2000/svg" viewBox="0 0 53.02 66.67"><defs><style>.cls-1,.cls-2{font-size:21px;font-family:AlverataIrregularLt, Alverata Irregular;}.cls-1,.cls-2,.cls-4{fill:#231f20;}.cls-2{letter-spacing:-0.01em;}.cls-3{letter-spacing:0em;}.cls-4{stroke:#231f20;stroke-miterlimit:10;}</style></defs><text class="cls-1" transform="translate(0 17.99)">Rosie</text><text class="cls-2" transform="translate(2.86 60.11)">H<tspan class="cls-3" x="15.43" y="0">art</tspan></text><path class="cls-4" d="M35.76,29.71l1.11-1.18a9.41,9.41,0,0,1,1.73-1A6.67,6.67,0,0,1,43,27.37a3.43,3.43,0,0,1,1.9,1.19l.45.56a6.39,6.39,0,0,1,.67,3.2l-.12,1.09A9.3,9.3,0,0,1,45,35.82a9.15,9.15,0,0,1-1.49,1.8l-1.11,1s-1.47,1.12-1.9,1.47l-5.42,3.35-.52.32V31.55A5.33,5.33,0,0,1,35.76,29.71Z" transform="translate(-9.15 -3.7)"/><path class="cls-4" d="M32.43,29.71l-1.11-1.18a9.41,9.41,0,0,0-1.73-1,6.67,6.67,0,0,0-4.35-.13,3.46,3.46,0,0,0-1.9,1.19l-.45.56a6.49,6.49,0,0,0-.66,3.2l.12,1.09a9.22,9.22,0,0,0,.8,2.41,9.91,9.91,0,0,0,1.49,1.8l1.12,1s1.46,1.12,1.89,1.47l5.42,3.35.53.32V31.55A5.29,5.29,0,0,0,32.43,29.71Z" transform="translate(-9.15 -3.7)"/></svg>
