<?xml version="1.0" encoding="utf-8"?>
<!-- Generator: Adobe Illustrator 26.0.2, SVG Export Plug-In . SVG Version: 6.00 Build 0)  -->
<svg version="1.1" id="Layer_1" xmlns="http://www.w3.org/2000/svg" xmlns:xlink="http://www.w3.org/1999/xlink" x="0px" y="0px"
	 viewBox="0 0 200 42" style="enable-background:new 0 0 200 42;" xml:space="preserve">
<style type="text/css">
	.st0{display:none;stroke:#000000;stroke-miterlimit:10;}
	.st1{display:none;}
	.st2{display:inline;}
	.st3{opacity:0.1091;enable-background:new    ;}
	.st4{fill:#FFFFFF;}
</style>
<path class="st0" d="M169.8,14.3L171,13c0.3-0.3,1.5-1,1.9-1.1c1.7-0.7,3.5-0.5,4.8-0.1c1,0.3,1.6,0.6,2.1,1.3l0.5,0.6
	c0.5,1.2,0.8,2.2,0.7,3.5l-0.1,1.2c0,0.5-0.5,1.9-0.9,2.7c-0.2,0.5-1.2,1.6-1.7,2l-1.2,1.1c0,0-1.6,1.2-2.1,1.6l-6,3.7l-0.6,0.4
	V16.3C168.5,16.3,168.7,15.7,169.8,14.3z"/>
<path class="st0" d="M166.2,14.3L165,13c-0.3-0.3-1.5-1-1.9-1.1c-1.7-0.7-3.5-0.5-4.8-0.1c-1,0.3-1.6,0.6-2.1,1.3l-0.5,0.6
	c-0.5,1.2-0.8,2.2-0.7,3.5l0.1,1.2c0,0.5,0.5,1.9,0.9,2.7c0.2,0.5,1.2,1.6,1.7,2l1.2,1.1c0,0,1.6,1.2,2.1,1.6l6,3.7l0.6,0.4V16.3
	C167.5,16.3,167.3,15.7,166.2,14.3z"/>
<g class="st1">
	<g class="st2">
		<g>
			<path class="st3" d="M175.1,16.3c2.1-3.1,5.4-4.2,9.8-3.2c-0.8-0.3-1.5-0.6-2.3-0.8c0.8,0.7,1.7,1.3,2.5,2
				c-0.7-0.6-1.3-1.2-2-1.9c0.2,0.3,0.4,0.7,0.6,1c-0.1-0.2-0.2-0.5-0.3-0.7c0,4.5-5.3,8.6-8.3,11.4c-1.3,1.2-2.3,2.4-3.5,3.8
				c0.4-0.3,0.8-0.5,1.3-0.8c-8.4-5.1-10.4-11.7-5.8-20c-0.3,0.1-0.6,0.2-0.9,0.3c2.8,2.5,4.9,5.5,6.3,9.1c0.1,0.1,0.4,0.6,0.6,0.3
				c0.2-0.3-0.2-0.9-0.3-1.1c-1.5-2.5-2.7-5.2-3.6-8l-0.1-0.1c-0.4-0.6-1.1-1.1-1.9-1.2c-1.3,0-2.3,1.3-2.9,2.3
				c-1,1.6-1.2,3.3-0.9,5.2c0.3,1.6,0.8,3.2,1.4,4.7c1.4,3.6,4.4,6.7,6.7,9.7c0.3,0.4,1.4-0.9,1.5-1.1c2.1-2.5,4.7-4.1,7.1-6.3
				c1.1-0.9,2.1-2,2.8-3.3c0.3-0.8,0.9-1.4,1.6-1.8c1.1-0.9,1.4-1.8,0.9-3.1c-0.2-0.5-2.1-1-2.5-1c-2.1-0.2-2.6-0.3-4.6,0.2
				c-2.5,0.7-3.9,2-5.5,3.9C172.2,16.4,174.8,16.7,175.1,16.3z"/>
			<path class="st3" d="M173.6,15.7c1.7-2.5,4.2-3.8,7.6-3.8c-0.8-0.1-1.7-0.2-2.5-0.3c1.6,0.4,3.3,0.7,4.9,1.1
				c-0.8-0.4-1.6-0.8-2.4-1.2c0.6,0.5,1.3,0.9,1.9,1.4c-0.6-0.5-1.1-0.9-1.7-1.4c0.5,0.7,1.1,1.3,1.6,2c-0.4-0.7-0.8-1.3-1.2-2
				c0.1,0.4,0.2,0.7,0.3,1.1c0-0.3-0.1-0.5-0.1-0.8c-0.7,3.4-2.2,6.4-4.7,9.1c0.5-0.6,1-1.2,1.5-1.8c-2.7,2.7-5.5,5.3-8,8.2
				c1.2-0.6,2.4-1.2,3.6-1.8c-2.8-2.4-5.4-4.9-7.8-7.7c-2.9-2.6-3.2-6.1-0.7-10.5c-0.4,0.4-0.7,0.9-1.1,1.3c0.4-0.3,0.8-0.5,1.3-0.8
				c-0.4,0.2-0.8,0.4-1.2,0.6c0.6-0.1,1.2-0.2,1.8-0.3c-0.4,0-0.8,0-1.2,0.1c0.2,0.2,0.4,0.4,0.5,0.7c1.6,2.4,3.5,4.6,5.6,6.6
				c0.4,0.4,0.3,0.1,0.4-0.2c0.1-0.4-0.7-1.9-1-2.2c-1.5-1.2-2.5-2.6-2.8-4.3c-0.1-0.4-0.2-0.8-0.3-1.2c-0.2-0.3-0.6-0.7-0.9-0.9
				c-1.6-0.9-2.8,0.9-3.4,2.1c-0.6,1.3-0.9,2.8-0.8,4.2c0.6,5.7,4.8,10.2,8,14.5c0.3,0.5,3.4-1.5,3.6-1.8c2.2-3.4,2.7-3.5,5-6
				c0.7-0.6,1.3-1.3,1.8-2.1c0.3-1,0.8-1.9,1.6-2.5c1-1.2,1.7-1.6,1-3.2c-0.2-0.5-2.3-0.8-2.7-0.8c-2.1,0-3.9,0.2-5.8,1
				c-2,0.8-3.2,2.1-4.6,3.7c-0.4,0.4,0.8,0.3,0.8,0.3C172,16.1,173.3,16.1,173.6,15.7z"/>
			<path class="st3" d="M174.4,14.2c3.1-1,6.2-1.9,9.4-2.9c-0.1,0.8-0.2,1.5-0.2,2.3c-1,1.5-2.3,2.8-3.7,3.9c-3,2.9-6.4,5.5-9.2,8.6
				c0.4-0.1,0.9-0.1,1.3-0.2c-3.9-4.1-10.8-10.9-8.1-17.4c0.2-0.9,0.8-1.4,1.9-1.4c1.2-1.1,2-0.9,2.3,0.5c1.5,2.6,2.1,3.8,3.9,7.3
				c0.2,0.3,0.7,0.1,0.5-0.2c-1.5-2.6-2.8-5.3-3.8-8.1c-0.1-0.3-0.1-0.5-0.3-0.7c-0.2-0.4-0.6-0.9-1-1.1C166,4.1,164.8,4.9,164,6
				c-1.4,1.7-1.8,4-1.5,6.1c0.3,2,0.9,4,1.8,5.8c1,1.4,1.9,2.9,2.9,4.3c1,1.5,2.1,2.9,3.3,4.2c0.2,0.3,1.3-0.1,1.4-0.3
				c1-1.4,2.1-2.6,3.4-3.7c1.3-1.1,2.7-2.2,4-3.2c1.6-1.4,1.9-1.6,3-3.1c0.9-1.3,3.1-3,2.4-4.9c-0.6-1.7-4-1.2-5.3-1
				c-2.8,0.5-4.9,2.2-6.8,4.3c-0.3,0.3,0,0.3,0.2,0.4C173.3,15,174.2,14.4,174.4,14.2z"/>
			<path class="st3" d="M174.5,15.4c1.3-2,3.2-3.2,5.6-3.7c-0.4,0.1-0.8,0.2-1.3,0.2c1-0.1,2-0.2,3.1-0.3c-1.4,0-2.7-0.1-4.1-0.1
				c2.1,0.2,4.2,0.3,6.3,0.5c-1.5-0.3-3-0.6-4.5-0.9c0.5,2,1.1,4,1.6,6c0-1.1-0.1-2.2-0.1-3.4c-0.6,2.6-2,4.8-4.1,6.6
				c-1.7,2.2-3.3,4.4-5.1,6.5c1.1-0.7,2.2-1.3,3.4-2c-3.4-3.2-6.9-6.4-10.4-9.6c0.4,0.6,0.9,1.1,1.3,1.7c-0.8-1.4-1.5-2.7-2.3-4.1
				c0.4,1,0.8,1.9,1.2,2.9c-0.4-1.5-0.8-3-1.3-4.5c0.2,1,0.3,2,0.5,3c-0.1-1.5-0.2-3-0.3-4.5c-0.1,1-0.1,2-0.2,3
				c0.3-1.5,0.5-3,0.8-4.4c-0.3,1-0.6,2-0.9,3c0.9-1.5,1.8-2.9,2.7-4.4c-0.8,0.9-1.6,1.7-2.4,2.6c0.9-0.6,1.8-1.3,2.6-1.9
				c-0.9,0.6-1.8,1.1-2.7,1.7c1.1-0.4,2.2-0.8,3.3-1.1c-0.9,0.2-1.9,0.5-2.8,0.7c0.2,0.1,0.4,0.1,0.5,0.2c-0.1-0.1-0.3-0.2-0.4-0.2
				c0.6,3,11,9.9,7.1,6.4c0.4,0.3,0.6,0.1,0.3-0.3c-2-2.2-3.3-4.6-3.8-7.4c-0.1-0.5-0.4-0.9-0.8-0.9c-0.7-0.4-1.3-0.2-2,0
				c-0.4,0.1-1.1,1.6-1.2,1.7c-0.3,0.5-0.9,1.3-0.9,1.9c-0.2,1-0.2,1.9-0.1,2.9c0.4,1.7,1,3.3,1.8,4.9c1.6,3.4,4.2,6.2,6.5,9.1
				c0.3,0.4,3.2-1.7,3.4-2c0.9-1.5,1.8-3,2.7-4.5c-0.6,0.8-1.3,1.6-1.9,2.3c1.6-1.4,3.2-2.9,4.6-4.5c2-2.3,1-2.1,1.7-7
				c0.1-0.5-4.7-0.4-5-0.3c-1.2,0.3-2.3,0.7-3.4,1.2c-2,0.9-3.1,2.1-4.5,3.8c-0.5,0.6,1.4,0.1,1.3,0.1c0.8-0.1,1.6-0.3,2.4-0.5
				C173.8,15.7,174.2,15.6,174.5,15.4z"/>
			<path class="st3" d="M175.2,13.9c1.1-0.9,2.2-1.8,3.3-2.8c-0.6,0.2-1.1,0.5-1.7,0.7c1.1-0.4,2.3-0.8,3.4-1.2
				c-0.6,0.2-1.1,0.3-1.7,0.5c1.6,0.9,3.3,1.8,4.9,2.7c-2.2,2.8-4.6,5.4-7.4,7.5c-1.8,1.5-3.4,2.9-4.9,4.6c0.3,0,0.5-0.1,0.8-0.1
				c-4.5-4.4-7.2-9.9-8.2-16.5c0,0.5-0.1,1-0.1,1.5c0.2-2.1,1-3.7,2.5-4.9c-0.2,0.1-0.4,0.2-0.5,0.4c1.1-0.3,2,0.1,2.5,1
				c1.3,2.4,2.8,4.8,4.2,7.2c0.2,0.3,0.9,0.4,0.7,0c-1.8-2.7-3.2-5.6-4.1-8.7c-0.2-0.2-0.3-0.4-0.5-0.6c-0.4-0.6-0.6-0.7-1.4-0.9
				c-2.2-0.3-3.6,3-3.9,4.6c-1.3,6.6,4.2,12.8,7.8,17.4c0.1,0.2,0.7,0,0.8-0.1c2.4-2.8,5.1-4.7,7.9-7.1c1.8-1.6,3-3.1,4.3-5
				c0.9-1.2,1.5-2,1.1-3.5c0-0.1-0.1-0.2-0.2-0.2c-1.7-0.3-3.3-0.7-5-0.3c-0.9,0.2-1.7,0.5-2.5,0.8c-2.1,0.8-3.6,2.2-5.1,3.9
				c-0.4,0.5,1,0,0.8,0C173.9,14.8,174.8,14.4,175.2,13.9z"/>
			<path class="st3" d="M173.9,15.1c8.7-3.9,11.7-4.2,9.1-0.9c-0.3,0.3-0.6,0.6-0.9,0.9c-2.5,3.1-5.3,5.8-8.4,8.2
				c-1.5,1.1-2.8,2.5-4,3.9c0.8-0.2,1.6-0.5,2.4-0.7c-2.4-1.8-4.3-4-5.9-6.5c-1.4-1.5-2.4-3.1-3-5s-0.8-3.7-0.1-5.6
				c0.9-2.2,3.4-5.8,4.9-0.7c0.1,0.6,0.2,1.2,0.3,1.7c0.9,1.9,1.8,3.8,2.9,5.6c0.2,0.4,0.6-0.1,0.4-0.4c-1.4-2.6-2.5-5.2-3.4-8
				c-0.1-0.3-0.2-0.6-0.3-0.9c-0.4-0.7-0.8-1.1-1.5-1.3c-1.3-0.2-2.2,0.4-3,1.4c-1.1,1.4-1.7,3.3-1.8,5c-0.1,1.5,0.6,3.4,1.1,4.7
				c0.3,0.8,0.6,1.6,0.8,2.4c1.9,3,3.9,5.8,6.1,8.5c0.3,0.4,2.2-0.4,2.4-0.7c2.2-2.8,4.4-4.5,6.9-6.8c1.3-1.1,1.4-1.3,2.2-2.2
				c0.9-1.1,4.8-4.2,2.8-6c-0.3-0.3-1.9-0.5-2.4-0.5c-0.8-0.1-1.8,0-2.5,0.1c-2.6,0.4-4.3,1.9-6,3.7
				C172.7,15.3,173.7,15.3,173.9,15.1z"/>
			<path class="st3" d="M174.6,16.4c3-3.4,5.4-4,9.8-3.1c-0.5-0.2-0.9-0.4-1.4-0.6c0.4,0.3,0.8,0.6,1.3,0.9c-0.3-0.3-0.7-0.6-1-0.9
				c0.2,0.3,0.5,0.6,0.7,0.9c-0.2-0.3-0.4-0.7-0.6-1c-0.2,1.7-0.8,3.3-1.8,4.7c-1.1,1.5-2.5,2.9-3.9,4.2c-2.4,2.3-4.8,4.4-7,6.9
				c0.6-0.4,1.1-0.7,1.7-1.1c-1.3-1.2-2.6-2.4-3.9-3.6c-1.4-2.1-2.9-4.2-4.3-6.3c-0.2-0.8-0.5-1.6-0.7-2.4c2.4-7.7,4-9.9,4.7-6.6
				c0.2,0.7,0.2,1.4,0.3,2.1c0,0.1,0.1,0.2,0.1,0.3c1.1,2.1,2.2,4.2,3.5,6.2c0.1,0.2,0.3,0.4,0.5,0.2c0.2-0.2-0.2-0.9-0.3-1.1
				c-1.5-2.3-2.6-4.8-3.2-7.4c-0.1-0.8-0.4-1.4-1.1-1.9c-0.3-0.1-0.8-0.3-1.1-0.3c-1.3,0-2.3,1.1-3,2.1c-0.9,1.2-1.4,2.6-1.4,4.2
				s0.6,3.4,1.1,5c0.3,0.8,0.5,1.6,0.8,2.4c2,2.9,4.1,5.8,6.3,8.6c0.3,0.4,1.6-0.9,1.7-1.1c1.6-1.5,3.2-3,4.8-4.4
				c1.2-0.8,2.3-1.8,3.3-2.9c0.4-0.3,0.7-0.7,1-1c0.6-0.7,1.2-1.4,1.6-2.3c1.2-1.2,2.5-2.1,1.7-3.9c-0.2-0.4-1.1-0.7-1.5-0.8
				c-2-0.2-3.5-0.3-5.4,0.4c-2.1,0.7-3.1,1.8-4.5,3.4C172.9,16.5,174.4,16.7,174.6,16.4z"/>
			<path class="st3" d="M175.6,15.1c1.6-2.5,4.1-3.7,7.4-3.6c-1.2,0-2.4,0-3.6,0c1.7,0.1,3.4,0.3,5.1,0.4c-1-0.2-2.1-0.3-3.1-0.5
				c1.2,0.8,2.4,1.6,3.5,2.3c-0.7-0.7-1.5-1.4-2.2-2.1c1.2,3.1-4,8.3-6,10.4c-1.6,1.6-3,3.1-4.5,4.8c0.5-0.3,1.1-0.5,1.6-0.8
				c-3.9-3.5-6.9-6.7-9.2-11.5c0.1,0.4,0.3,0.8,0.4,1.2c-0.3-1.1-0.6-2.2-0.8-3.4c0,0.5,0.1,1,0.1,1.5c0-1.1,0-2.1,0-3.2
				c-0.1,0.5-0.1,1.1-0.2,1.6c0.2-1.1,0.4-2.2,0.6-3.2c-0.2,0.6-0.4,1.1-0.5,1.7c0.4-1,0.9-2.1,1.3-3.1c-0.4,0.7-0.8,1.4-1.2,2.1
				c0.7-0.9,1.4-1.9,2.1-2.8c-0.5,0.5-0.9,1.1-1.4,1.6c0.7-0.6,1.4-1.2,2.1-1.8c-0.6,0.4-1.2,0.9-1.8,1.3c0.6-0.3,1.2-0.5,1.8-0.8
				c-0.6,0.2-1.1,0.4-1.7,0.6c2.9,0.8,4.9,2.9,6,6.2c0.3,0.3,1.1,1.5,1.5,1.5c0.2,0,0.6,0.1,0.3-0.3c-2.2-1.9-3.4-4.1-3.5-6.7
				c-0.1-0.5-0.2-0.9-0.3-1.4c-0.4-0.9-1-1.3-1.9-1.3c-1.4,0-2.3,1.3-2.9,2.4c-0.8,1.3-1.3,2.9-1.1,4.5c0.1,1.2,0.5,2.2,1,3.4
				c1.9,4.2,4.7,7.6,7.6,11.1c0.3,0.4,1.4-0.6,1.6-0.8c2.1-2.4,4.4-4.6,6.7-6.8c1.5-1.6,2.9-3.2,4.1-5c1-0.9,1.4-1.4,1.2-2.7
				c-0.1-0.2-0.2-0.3-0.4-0.3c-2.4-0.5-4.6-0.7-7-0.2c-1.3,0.3-2.1,0.5-3.3,1.2c-1.7,0.9-2.6,1.9-3.8,3.3c-0.4,0.5,1.3,0.1,1.2,0.2
				C173.1,15.8,175.1,15.7,175.6,15.1z"/>
			<path class="st3" d="M173.8,14.8c1.1-2.1,2.8-2.6,5.2-1.5c4.2-0.9,4.9,0.3,1.9,3.5c0.2-0.3,0.4-0.6,0.6-0.9
				c-3.3,4-7.6,6.9-11.1,10.7c0.8-0.2,1.7-0.5,2.5-0.7c-1.2-1.1-2.3-2.1-3.5-3.2c-1.4-1.8-2.9-3.7-4.3-5.5c-1.1-1.9-2-4-1.7-6.3
				c0.1-1.1,0.4-2,1-3c0.4-1,1-1,1.9,0.1c2.9,1.1,4.7,3.5,5.4,7.1c0.3,0.6,0.5-0.3,0.3-0.6c-1.8-1.8-2.9-3.8-3.4-6.1
				c-0.1-0.7-0.3-1.3-0.6-1.9c-0.2-0.3-0.6-0.8-1-1c-1.6-1-2.9,0.7-3.6,1.9c-3.9,6.7,3.4,14.7,7,19.4c0.3,0.4,2.3-0.3,2.6-0.6
				c2-2.7,4.4-4.7,6.7-7.2c0.7-0.7,1.4-1.4,1.9-2.2c0.3-0.9,0.8-1.7,1.6-2.3c0.4-0.3,0.8-0.8,1-1.3c0.3-0.7,0.3-1.5-0.2-2.1
				c-0.7-0.8-4-0.5-4.9-0.3c-2.8,0.6-4.9,2.1-6.8,4.2C171.6,15.7,173.6,15.1,173.8,14.8z"/>
			<path class="st3" d="M174.2,14.7c1.8-1.2,3.5-2.3,5.3-3.5c-1,0.3-2,0.5-3.1,0.8c1.5-0.3,3.1-0.5,4.6-0.8
				c-0.8,0.1-1.6,0.2-2.4,0.2c1.2,0,2.5,0,3.7,0.1c-0.6-0.1-1.2-0.1-1.7-0.2c1,0.6,2,1.2,3.1,1.8c-0.6-0.6-1.2-1.2-1.9-1.8
				c1.5,4.1-7,11.2-10.4,15.1c1-0.3,2-0.6,3-0.9c-1.9-1.3-3.6-2.7-5.1-4.4c-2-1.9-3.8-4.1-5.3-6.5c0.3,0.6,0.7,1.2,1,1.8
				c-0.6-1.5-1.2-3-1.8-4.4c0.3,0.9,0.6,1.9,0.9,2.8c-0.2-1.3-0.5-2.6-0.7-3.9c0.1,0.8,0.2,1.5,0.2,2.3c0-1.3,0-2.6,0-3.9
				c-0.1,0.8-0.1,1.5-0.2,2.3c0.3-1.3,0.5-2.5,0.8-3.8c-0.2,0.8-0.4,1.5-0.6,2.3c0.4-0.9,0.8-1.8,1.2-2.6c-0.3,0.5-0.6,1.1-0.9,1.6
				c0.9-0.8,1.8-1.7,2.7-2.5c-0.7,0.5-1.4,1-2.2,1.6c0.3-0.1,0.6-0.1,0.9-0.2c-0.1,0-0.3-0.1-0.4-0.1c1.7,2.2,3.6,4.2,5.7,6.1
				c0.3,0.3,0.6,0.7,1,0.8c0.2,0.1,0.2-0.3,0.1-0.4c-2-2.1-3.2-4.4-3.7-7c0-0.6-0.3-1.2-0.8-1.6c-0.3-0.2-0.8-0.3-1.1-0.3
				c-1.5-0.1-2.5,1.8-3,3c-0.4,1.2-0.6,2.6-0.4,3.9c1,5.6,4.9,10,8.4,14.2c0.4,0.4,2.8-0.6,3-0.9c1.3-2,2.6-3.9,4.2-5.6
				c1-1.1,2-2.2,2.9-3.4c0.6-0.9,1.3-1.8,1.9-2.8c0.2-0.2,0.5-0.5,0.7-0.7c0.5-0.7,0.4-1.2,0.2-1.9c-0.1-0.3-0.9-0.3-1-0.3
				c-2.4-0.1-4.4-0.3-6.7,0.5c-2.7,0.9-4.4,2.3-6.2,4.5c-0.4,0.5,1.3-0.1,1.1,0C172.3,15.6,173.7,15.3,174.2,14.7z"/>
			<path class="st3" d="M175.4,15.8c1.7-2.5,4.2-3.7,7.5-3.7c-1.1-0.1-2.2-0.2-3.3-0.4c1.9,0.7,3.8,1.3,5.7,2
				c-0.9-0.6-1.9-1.2-2.8-1.9c0.5,0.5,0.9,1,1.4,1.6c-0.4-0.5-0.7-0.9-1.1-1.4c-1.4,2.8-2.8,5.5-4.2,8.3c-1.1,1.1-2.1,2.2-3.2,3.2
				c-1.3,1.4-2.2,2.4-3.5,3.9c0.5-0.3,1-0.7,1.6-1c-4.4-4.1-8-7.5-9.5-13.7c0,0.3,0.1,0.7,0.1,1c0-0.9,0-1.8,0-2.7
				c0,0.4-0.1,0.8-0.1,1.1c0.2-0.9,0.4-1.8,0.6-2.7c-0.1,0.4-0.3,0.8-0.4,1.2c0.4-0.9,0.8-1.7,1.2-2.6c-0.2,0.4-0.5,0.8-0.7,1.2
				c0.6-0.7,1.1-1.4,1.7-2c-0.4,0.4-0.8,0.7-1.2,1.1c0.6-0.4,1.2-0.9,1.9-1.3c-0.5,0.3-1,0.6-1.5,0.8c0.5-0.2,1.1-0.3,1.6-0.5
				c-0.5,0.1-1,0.2-1.5,0.3c0.5,0.1,1.1,0.1,1.6,0.2c-0.2-0.1-0.5-0.1-0.7-0.2c2,2.2,3.7,4.5,5.3,7c0.2,0.3,0.8,1.3,1.2,1.4
				c0.2,0.1,0.4,0,0.2-0.3c-2-2.1-3.2-4.4-3.6-7c-0.1-0.5-0.2-0.9-0.4-1.4c-0.5-0.8-1.2-1.2-2.1-1.1c-1.2,0.1-1.9,1.1-2.6,1.9
				c-1.1,1.6-1.4,3.6-1,5.5c1.1,5.4,5.1,9.7,8.3,13.9c0.3,0.4,1.4-0.9,1.6-1c1.4-1.8,3.1-3.2,4.8-4.6c1.9-1.6,3.6-3.4,5.1-5.4
				c0.5-0.6,1.8-1.7,2.2-2.6c0.3-0.6,0.2-1,0.1-1.7c-0.2-0.7-3.1-1.1-3.6-1.1c-2.1-0.1-2.8-0.2-4.8,0.4c-2.5,0.8-4,2.1-5.7,4
				c-0.4,0.5,1,0.3,1,0.3C173.1,16.2,175,16.3,175.4,15.8z"/>
			<path class="st3" d="M174,15.6c1-2.1,2.7-2.5,5-1.3c1.2,0.1,2.3,0.2,3.5,0.3c-1.8,2.1-3.6,4.3-5.4,6.4c-2.4,2.2-4.8,4.1-7,6.5
				c0.8-0.3,1.6-0.6,2.4-0.9c-4.6-4.2-13.1-11.8-8.3-18.7c0.5-1.3,1.2-1.6,2.3-1c1.1,0,1.7,0.5,1.6,1.7c1.1,4.6-1.2-0.9,3.4,7.6
				c0.3,0.6,0.6-0.2,0.4-0.6c-1.6-2.7-2.8-5.6-3.6-8.7c-0.2-0.6-0.5-1-1.1-1.2c-1.8-0.8-3.1,0.9-4,2.2c-1.3,2.2-1.6,4.2-0.9,6.7
				c0.5,1.6,1,3.1,1.5,4.6c1.9,2.9,4,5.8,6.1,8.6c0.3,0.5,2.3-0.8,2.6-1.1c1-1.4,2.1-2.6,3.3-3.7c1.2-0.8,2.2-1.8,3.3-2.7
				c0.6-0.6,1.2-1.2,1.8-1.8c0.6-0.8,1.1-1.5,1.6-2.4c0.9-0.9,2.2-1.6,2-3.1c-0.2-1.4-1.8-1.4-3-1.5c-0.8-0.1-1.7,0-2.5,0.2
				c-2.5,0.5-4,1.8-5.7,3.6C172.7,15.8,173.7,15.9,174,15.6z"/>
		</g>
	</g>
</g>
<g class="st1">
	<g class="st2">
		<g>
			<path class="st3" d="M151.1,20.6c2.7,1.2,5.3,2.4,8,3.6c-1.4,1.2-2.8,2.5-4.2,3.7c-1.8,1-3.5,2-5.3,3c-1.3-2.7-2.4-5.4-3.2-8.3
				c-0.8-1.7-1.2-3.4-1.5-5.2c-0.6-1.4-0.2-2.6,1.2-3.6c0.4-2.1,0.9-2.8,1.7-1.9c2.1,2,3.5,4.6,4,7.8c0.1,0.3,0.4,1,0.3,0.3
				c-0.1-1.8-0.4-3.4-1.3-5c-0.7-1.2-1.6-2.3-2.5-3.3c-0.9-0.9-2-1.2-3-0.3c-1.5,1.5-0.9,4.5-0.6,6.2c0.3,1.6,0.5,2.7,1,4.3
				c0.5,1.5,1.1,3,1.6,4.5c0.6,1.6,1.2,3.3,1.8,4.9c0.1,0.5-0.1,0.8,0.6,0.9c0.9,0.2,3-2,2.8-1.9c2.3-1.9,4.5-4,6.9-5.7
				c0.9-0.6,1.9-1.4,2.4-2.4c0.8-1.7-0.2-3.1-1.7-3.8c-1.8-0.8-4.3-1.1-6.3-0.8c-0.5,0.1-1,0.2-1.5,0.4c-1.4,0.6-1.9,1.5-2.2,2.9
				C150.2,21.2,151,20.8,151.1,20.6z"/>
			<path class="st3" d="M150.4,20.4c3.6,0,7.2-0.1,10.7-0.1c-0.2-0.3-0.3-0.7-0.5-1c-3.7,4.1-7.4,8.2-11.2,12.3
				c0.5-0.2,1.1-0.4,1.6-0.6c-4.6-5.3-6.6-11.6-6.1-19.2c-0.1,0.2-0.2,0.4-0.4,0.6c4.1-1.1,6.3,1.3,6.8,7.3c0,0.2,0.2,0.2,0.2,0
				c0.1-0.4,0-1,0-1.4c-0.4-2-1.2-3.7-2.7-5.2c-1.2-1.2-3.2-3.8-4.5-0.9c-0.6,1.4-0.4,3.1-0.2,4.6c0.3,2.5,1.2,5,2.1,7.4
				c0.6,1.5,1.2,3,1.7,4.5c0.6,0.8,0.9,1.7,0.9,2.7c-0.1,0.1-0.1,0.2,0,0.3c0.1,0.1,0.3,0.2,0.5,0.3c0.3,0.2,1.5-0.5,1.8-0.7
				c2.5-2.2,4.9-4.4,7.3-6.6c0.8-0.5,1.6-1.2,2.2-2c0.6-0.9,1.1-1.9,0.7-2.9c-0.5-1.2-1.8-1.7-2.9-1.9c-2.2-0.5-4.7-0.9-6.8,0.3
				c-1.4,0.8-2,1.8-2.4,3.4C149.3,21.5,150.4,20.8,150.4,20.4z"/>
			<path class="st3" d="M150.7,19.6c0.7-2.5,3.8-2.7,5.9-2.4c1.1,0.2,2.6,0.2,3.6,0.9c0.5,0.7,0.9,1.4,1.4,2.1
				c-0.1,0.6-0.3,1-0.7,1.5c-0.7,1-1.6,1.5-2.6,2.3c-1.5,1.1-2.9,2.6-4.3,3.7c-4.9,3.9-3.9,4.1-5.5,0.5c-2.7-5.3-3.3-11.1-1.7-17.4
				c0.5,0.3,1,0.7,1.5,1c2.2,1.9,3.1,5,3.3,7.8c0,0.2,0.3,0.1,0.3-0.1c-0.2-2.3-0.5-4.2-1.8-6.1c-0.6-0.9-1.8-2.5-2.9-3.1
				c-1.7-1-2.8,0.6-3.1,2.1c-0.6,2.8,0.5,6.2,1.3,8.8c0.5,1.8,3.1,7.6,3.3,9.3c0.1,0.6-0.1,0.5,0.4,0.8c0.3,0.2,0.4,0.1,0.8,0.2
				c0.8,0.1,9.7-7.8,9.8-7.9c1.7-1.5,3.5-3.8,0.9-5.4c-1.9-1.2-5.4-1.9-7.7-1.1c-1.8,0.6-2.5,2-3,3.7
				C149.8,20.9,150.6,19.8,150.7,19.6z"/>
			<path class="st3" d="M150.9,20.3c0.4-0.7,0.8-1.4,1.1-2.1c-0.5,0.3-1,0.7-1.4,1c3.4-0.1,6.8-0.1,10.1-0.2
				c-0.3-0.2-0.6-0.5-0.9-0.7c2.4,5.3-0.6,9.5-8.9,12.4c0.2,0,0.4,0,0.6,0c-2.8-3.7-9.2-13.3-6-19.5c-0.4,0.5-0.7,1-1.1,1.6
				c3.4-2.9,6.3,3.5,7.2,6.3c0.1,0.2,0.4,0.8,0.3,0.3c-0.2-2.1-0.6-3.8-2-5.6c-0.4-0.5-1.9-2.3-2.7-2.8c-1.3-0.8-2.3,0.3-2.8,1.3
				c-0.8,1.7-0.6,3.8-0.2,5.6c0.7,3,2,5.6,3.3,8.3c1.1,1.6,1.7,3.2,1.9,5c0.1,0.1,0.3,0.2,0.5,0.3c0.4,0.2,1.5-0.5,1.8-0.7
				c2.3-2.2,4.7-4.3,7.1-6.5c0.8-0.5,1.5-1.1,2.1-1.9c0.4-0.5,0.8-1.2,0.9-1.9c0.1-1.3-1.1-2-2.2-2.5c-1.8-0.9-4.8-1.2-6.8-0.5
				c-0.6,0.2-1.2,0.6-1.8,0.9c-1.4,0.9-1.9,1.8-2.2,3.4c-0.1,0.4,0.6-0.3,0.6-0.3C149.9,21.3,150.7,20.7,150.9,20.3z"/>
			<path class="st3" d="M151.1,19.3c0.1-0.4,0.2-0.8,0.3-1.2c-0.3,0.3-0.5,0.7-0.8,1c2.2-0.7,4.5-1.3,6.7-2c0.8,0,1.5,0.2,2.3,0.5
				c1.4,0.6,1.2,0.5,1.2,2.4c0,2.9,0.4,1.4-2.5,3.7c-1.3,1.1-7.7,7.3-8.9,6.3c0-0.1,0-0.1-0.1-0.2c-0.3-0.8-0.7-1.6-1-2.4
				c-1.4-3.1-2.5-6.4-3.3-9.8c0.6-2.4,1.1-4.8,1.7-7.1c0.3,0.1,0.5,0.2,0.8,0.3c0.8,0.7,1.5,1.5,2.3,2.2c1.4,1.7,1.9,3.8,2,6
				c0,0.2,0.3,0.3,0.3,0.1c-0.1-2.3-0.5-4.3-1.8-6.2c-0.7-1-1.7-2.4-2.7-3.1c-1.1-0.8-2.2-0.3-2.8,0.9c-0.3,0.5-0.5,1.2-0.6,1.8
				c-0.3,1.9,0.2,4.1,0.6,6c0.9,3.9,2.7,7.6,4.3,11.2c0-0.1-0.1-0.3-0.1-0.4c-0.2,1.2,0.1,1.9,1.2,1.5c1.4-1.1,2.8-2.2,4.2-3.4
				c1.8-1.5,3.6-2.9,5.4-4.4c0.6-0.5,1.1-1,1.5-1.6c0.5-0.7,0.9-1.8,0.6-2.7c-0.3-0.8-1.3-1.4-2.1-1.7c-1.7-0.7-4.9-1.4-6.7-0.7
				c-1.8,0.7-2.9,2.2-3.4,4c-0.1,0.3,0.5-0.3,0.4-0.2C150.6,20.2,151.1,19.7,151.1,19.3z"/>
			<path class="st3" d="M150.4,20c1.5-2.9,3.9-3.6,7.2-2.4c2.3,0.2,3.2,1.6,2.8,4.3c-0.8,0.8-1.6,1.6-2.5,2.3
				c-2.6,2.5-5.4,4.7-8.5,6.7c0-0.1-0.1-0.3-0.1-0.4c-1.4-2.9-2.7-5.8-3.8-8.9c-0.4-3.3-0.7-6.5-1.1-9.8c1.1-0.1,2.1-0.3,3.2-0.4
				c1.9,2.3,3.1,5.1,3.6,8.3c0,0.5,0.3-0.1,0.3-0.4c-0.1-1.5-0.1-2.3-0.8-3.8c-0.8-1.9-1-1.9-2.3-3.4c-0.9-1.1-1.9-2.6-3.4-1.6
				c-2.3,1.6-1.2,5.8-0.8,7.9c0.2,1,0.5,2,0.7,2.9c1,3,2.2,5.9,3.5,8.8c0,0.9-0.4,1,0.4,1.5c0.2,0.1,1-0.1,1.2-0.2
				c3.2-2.5,6.3-5.1,9.3-7.7c0.4-0.4,0.8-0.7,1.1-1.1c0.5-0.6,1-1.2,1.1-2c0.1-1-0.5-1.7-1.3-2.2c-2.2-1.4-6.4-2.2-8.7-0.6
				c-1.1,0.8-1.2,1.4-1.6,2.6C149.8,20.6,150.3,20.1,150.4,20z"/>
			<path class="st3" d="M150.9,20.6c8.6-0.2,11.4,0.9,8.4,3.3c-1.6,1.4-3.2,2.9-4.8,4.3c-2.9,4.1-4.7,5.1-5.2,3
				c-0.5-1.7-1.1-3.3-2-4.8c-0.8-2.5-1.6-5-2.4-7.5c-0.3-7.1,0.6-9.4,2.8-7c1.7,2,4,9.9,3.9,8.4c0.1,0.8,0.3-0.3,0.2-0.6
				c-0.2-2.1-0.7-3.9-1.9-5.6s-3.5-5-5.3-2.1c-1,1.6-0.5,3.7-0.3,5.4c0.2,1.5,0.6,2.9,1,4.4c0.4,1.6,0.9,3.1,1.6,4.6
				c0.6,1.7,1.2,3.3,1.8,5c0.1,0.7,0.1,0.9,0.9,0.9c0.2,0,0.2,0,0.4-0.1c0.5-0.1,4-3.2,4.4-3.5c1.8-1.5,3.5-2.9,5.3-4.3
				c0.4-0.3,0.8-0.7,1.2-1.1c0.7-0.7,1.1-1.6,0.9-2.5c-0.1-1-0.9-1.8-1.8-2.2c-1.9-0.9-4.3-1.2-6.4-0.8c-1.7,0.3-2.7,1.2-3.2,2.9
				C150.4,20.9,150.8,20.8,150.9,20.6z"/>
			<path class="st3" d="M151.3,20c0.4-0.7,0.8-1.4,1.2-2.1c-0.4,0.3-0.9,0.6-1.3,0.9c3.3,0.8,6.5,1.5,9.8,2.3
				c-0.5,0.8-1.1,1.6-1.6,2.3c-2,2.1-4.2,4-6.6,5.7c-0.8,0.6-1.6,1.2-2.4,1.8c-1.4-3.1-2.8-6.2-4.3-9.3c-1.3-3.4-1.4-7-0.3-10.6
				c-0.3,0.4-0.7,0.8-1,1.1c2.2-0.9,3.7-0.2,4.5,2.2c1.4,1.2,2.3,2.7,2.4,4.4c0,0.1,0.5,1.3,0.5,0.7c-0.1-1.5-0.3-2.7-0.9-4.1
				c-0.6-1.3-1.5-2.3-2.4-3.4c-0.4-0.5-0.7-1-1.3-1.3c-1.2-0.8-2.2,0-2.9,1c-1.3,1.9-0.7,4.5-0.2,6.5c0.8,3.7,2.6,6.9,4,10.4
				c0.3,0.6,0.6,2.4,1.3,2.9c0.2,0.1,0.7-0.1,0.8-0.2c3.1-2.6,6.3-5.2,9.4-7.9c0.8-0.7,1.8-1.7,1.9-2.9c0.2-1.5-1-2.2-2.2-2.6
				c-2.1-0.8-4.9-1.3-7-0.4c-0.7,0.3-1.5,0.7-2,1.2c-0.9,0.8-1.2,1.5-1.5,2.7C149.6,21.3,151.2,20.5,151.3,20z"/>
			<path class="st3" d="M150.5,19.9c0.6-2.2,2.9-2.7,4.8-2.7c1.6-0.1,2.8,0.5,3.8,1.8c2,0.5,2.5,1.3,1.6,2.5
				c-0.8,0.8-1.6,1.6-2.4,2.4c-2.6,2.5-5.4,4.7-8.4,6.7c-0.7-1.4-1.4-2.9-2.2-4.3c0-4.9,0.1-9.7,0.1-14.6c1.2,2.5,2.4,5,3.6,7.5
				c0,0.5,0.3-0.1,0.3-0.4c-0.3-3-1.4-5-3.3-7.2c-1.2-1.3-2.7-2.5-3.9-0.4c-1.1,2-0.4,5,0,7c0.6,2.9,1.4,4.5,2.4,7.3
				c1.1,1.7,1.7,3.5,1.8,5.4c0.1,0.2,0.3,0.3,0.5,0.4c0.3,0.2,1.1,0,1.3-0.1c2-1.3,7.7-6.4,9.2-8c0.8-0.8,1.8-1.7,1.9-3
				c0.1-1.4-1-2.2-2.2-2.6c-2.2-0.9-5.1-1.4-7.3-0.3c-1.4,0.7-2,1.9-2.4,3.3C149.6,21.1,150.4,20.1,150.5,19.9z"/>
			<path class="st3" d="M150.8,19.8c0.1-0.4,0.2-0.8,0.3-1.2c-0.2,0.3-0.4,0.6-0.7,0.9c0.6-0.6,1.2-1.1,1.9-1.7
				c-0.3,0.2-0.6,0.4-0.8,0.5c2.2-0.8,4.4-1,6.6-0.6c-0.4,6-3,10.5-7.8,13.3c0.3-0.1,0.7-0.3,1-0.4c-0.4,0-0.8-0.1-1.2-0.1
				c0.3,0.1,0.5,0.2,0.8,0.4c-1.9-6.5-3.8-13-5.7-19.4c-0.2,0.3-0.3,0.5-0.5,0.8c0.7-0.6,1.3-0.9,2.1-0.5c0.6,0.4,1.2,0.9,1.7,1.5
				c1.9,1.3,2.9,3.1,3.1,5.6c0.1,0.4,0.3,0.4,0.3-0.1c-0.2-1.6-0.2-2.2-0.9-3.8c-0.7-1.5-1.9-2.7-3-3.9c-1.6-1.8-3-0.7-3.6,1.3
				c-0.7,2.4-0.1,5.2,0.7,7.6c0.7,2,1.5,3.8,2.4,5.7c1.1,1.6,1.7,3.4,1.9,5.2c0.1,0.2,0.3,0.3,0.5,0.3c0.3,0.1,1.3-0.1,1.5-0.3
				c1.5-1.3,2.9-2.6,4.3-4c1.6-1.2,3-2.6,4.4-4.1c0.8-0.8,1.7-1.7,1.8-2.9c0-1.7-1.7-2.3-3.1-2.7c-2.3-0.6-4.9-1.1-7,0.4
				c-1.3,1-2.1,2.2-2.4,3.8c-0.1,0.4,0.6-0.4,0.5-0.3C150.1,20.8,150.6,20.3,150.8,19.8z"/>
			<path class="st3" d="M151.2,20.4c9.4-2,12.1-0.9,8.1,3.3c-2.9,2.8-6,5.4-9.2,7.8c0.2-0.1,0.4-0.2,0.6-0.3
				c-0.2-0.1-0.4-0.2-0.5-0.4c-1.4-3.1-2.7-6.1-4.1-9.2c-0.3-1-0.5-1.9-0.8-2.9c-1-1.9-0.7-3.6,1-4.9c0.6-2.1,1.3-2.5,2.2-1.3
				c0.6,0.4,1.1,0.9,1.4,1.5c1.1,1.5,1.5,2.9,1.9,4.8c0,0.1,0.5,1.4,0.5,0.8c-0.1-1.5-0.3-2.7-0.8-4.1c-0.6-1.6-2.1-3.5-3.4-4.5
				c-1.1-0.9-2.3-0.6-3.1,0.6c-1,1.4-0.7,3.3-0.5,4.8c0.5,4.3,2.6,8.2,4.2,12.1c-0.2-0.6,0.8,2.7,1.2,3c0.3,0.2,0.6,0.1,0.9-0.1
				c1.4-1.1,2.8-2.3,4.2-3.4c1.4-1.2,2.8-2.4,4.2-3.6c0.8-0.6,1.6-1.2,2.3-1.9c0.4-0.5,0.9-1.2,0.9-1.9c0.1-1.5-1.2-2.3-2.4-2.7
				c-1.7-0.6-3.7-1-5.5-0.8c-0.8,0.1-1.6,0.3-2.3,0.7c-1.4,0.7-2,1.6-2.4,3.2C149.7,21.4,151.1,20.7,151.2,20.4z"/>
			<path class="st3" d="M150.5,20.2c10.1-1.1,12.7,0.2,7.9,3.9c-3,2.6-6.1,5.1-9.2,7.5c0.3-0.1,0.6-0.1,0.9-0.2
				c-0.5-0.1-0.5-0.4-0.7-0.6c-0.7-1.5-1.4-3-2.1-4.5c-1.6-2.9-2.4-6.1-2.3-9.4c-1.3-2.1-1.4-3.9-0.2-5.3c0.3-0.7,0.8-0.7,1.5-0.2
				c0.7-0.1,1.2,0.1,1.5,0.6c1.7,2.3,2.9,5,3.4,8c0,0.3,0.3-0.5,0.3-0.7c-0.2-2.1-0.7-3.8-1.8-5.5c-0.6-0.9-2.8-4.5-4.6-3.1
				c-1.6,1.2-1.4,3.2-1.3,5c0.3,3.6,1.6,7,2.8,10.3c1.2,1.7,1.8,3.5,1.7,5.5c0.1,0.2,0.3,0.3,0.5,0.4s1-0.2,1.1-0.3
				c1.5-1.2,3.1-2.5,4.6-3.7c2-1.6,4.2-3.2,5.9-5.1c0.5-0.6,0.9-1.3,1-2.1c0.1-1.2-0.9-1.9-1.8-2.4c-2-0.9-4.8-1.6-6.9-0.8
				c-1.6,0.5-2.2,1.5-2.7,3C149.9,20.7,150.4,20.4,150.5,20.2z"/>
		</g>
	</g>
</g>
<g class="st1">
	<g class="st2">
		<g>
			<path class="st3" d="M184.1,22.4c1.6-1.4,3.4-2.3,5.5-2.6c0.9-0.2,1.9-0.4,2.8-0.6c2.1-0.9,3.7-0.4,4.9,1.5
				c-2.1,2.1-4.4,4.1-6.8,5.9c-2.7,2.5-5.9,4.2-9.6,5.2c-0.4-0.4-0.7-0.8-0.9-1.3c-0.9-1.8-1.7-3.6-2.6-5.4
				c-4.1-6.6-1.6-7.8,7.6-3.6c0.4,0.7,0.3-0.3,0.1-0.6c-1.5-2.8-4.2-7-8.1-5.6c-1.2,0.4-1.9,1.5-2.1,2.7c-0.3,2.4,1.4,5.7,2.1,7.3
				c0,0,2.3,5.7,3.5,6.9c0.6,0.6,1,0.6,1.8,0.5c0.3-0.1,0.6-0.2,0.8-0.3c3.4-2.1,6.6-4.4,9.6-6.8c1.5-1.7,3.3-3.2,5.2-4.3
				c0.2-0.2,0.4-0.4,0.6-0.6c0.3-0.6,0.1-1-0.3-1.4c-1-0.9-3.1-0.7-3.9-0.7c-3,0.1-6.4,1.2-9.2,2.2c-1.1,0.4-1.7,0.7-1.9,1.9
				C183.5,22.8,184,22.6,184.1,22.4z"/>
			<path class="st3" d="M183.5,22.3c2-2.2,4.6-2.9,7.8-2.1c7.1-1.7,7.6-0.5,1.5,3.7c-4.2,2.1-8.3,4.2-12.5,6.3
				c-2.3-2.8-3.4-6-3.1-9.6c-2-3-2-4.7,0-5c0.6-0.2,1.1-0.2,1.7-0.1c2.7,0.7,4.4,3.2,5.7,5.5c0.2,0.4,0.2-0.8,0.1-1
				c-1.1-1.6-2.2-3.4-3.9-4.4c-1.5-0.9-3.6-1.2-5,0c-1,0.9-1.1,2.1-0.9,3.4c0.6,3.9,3,7.4,4.6,10.9c0.4,0.9,0.8,1.9,1.8,2.2
				c0.9,0.2,1.8-0.2,2.6-0.6c1.6-1,3.1-2.1,4.6-3.2c3-2.3,5.9-4.7,8.6-7.3c0.4-0.3,1.2-0.7,1.3-1.2c0.3-1-0.6-1.4-1.3-1.6
				c-1-0.3-2-0.2-3-0.1s-1.9,0.3-2.9,0.5c-2,0.6-4,1.1-6,1.8c-1.4,0.5-2,1.1-2.1,2.5C182.9,23.3,183.5,22.5,183.5,22.3z"/>
			<path class="st3" d="M183.6,21.5c0.2-1,1.7-1.4,2.5-1.6c1-0.3,1.9-0.6,2.9-0.9c2.6,0.5,5.2,0.9,7.8,1.4c-0.7,0.6-1.5,1.3-2.2,1.9
				c-1.4,1.3-3,2.6-4.6,3.7c-2.8,2.6-6.1,3.7-10.2,3.4c0.8-4.3,1.7-8.7,2.5-13c1,1.4,1.8,2.8,2.5,4.4c0,0,0.3-0.1,0.3-0.2
				c-1.4-2.8-3-6.3-6.6-6.4c-1.9-0.1-3.6,0.8-3.8,2.8c-0.2,2.5,1.4,5.7,2.3,7.6c0.4,1,1.9,6.7,4.6,7c0.7,0.1,1-0.1,1.6-0.3
				c3.2-2.1,6.4-4.3,9.4-6.7c1.7-1.7,3.5-3.2,5.4-4.5c0.9-0.8,1.1-1.7-0.1-2.3c-1.1-0.5-4.8,0-5.9,0.1c-2.2,0.4-4.6,1-6.7,1.6
				c-1.5,0.4-1.9,1.1-2.1,2.5C183,22.8,183.6,21.8,183.6,21.5z"/>
			<path class="st3" d="M183.9,22c0-0.3,0.1-0.5,0.1-0.8c-0.3,0.3-0.5,0.7-0.8,1c2.2-1.9,4.9-2.7,7.9-2.1c8.9-2.1,8,0.3-2.5,7.2
				c-2.5,1.3-4.9,2.5-7.4,3.8c0.3-4.5,0.7-8.9,1-13.4c0.8,1,1.6,2.1,2.4,3.1c0.3,0.4,0.5,0.2,0.3-0.2c-1.4-2.5-3.3-5.7-6.6-5.7
				c-1.6,0-2.9,0.8-3.4,2.4c-0.2,0.5-0.2,1.1-0.2,1.7c0,0.7,0.3,1.5,0.6,2.2c1.1,3.2,3.1,6.3,4.6,9.3c0.6,1.2,1.5,1.9,2.9,1.6
				c0.4-0.1,0.7-0.3,1-0.5c1.5-0.8,3-2.1,4.4-3.2c3.3-2.5,6.5-5.1,9.5-7.9c1-0.9,0.9-1.8-0.5-2.2c-1.2-0.3-2.6-0.2-3.8-0.1
				c-0.9,0.1-2,0.3-2.9,0.5c-0.9,0.3-1.7,0.5-2.6,0.8c-0.9,0.3-1.9,0.5-2.8,0.8c-0.7,0.3-1.4,0.8-2,1.3c-0.6,0.6-0.6,0.8-0.7,1.8
				C182.7,23.5,183.9,22.4,183.9,22z"/>
			<path class="st3" d="M184.1,21.2c0.3-0.3,0.7-0.6,1-0.9c0.8-0.3,1.6-0.5,2.4-0.8c1.8-0.8,3.6-0.7,5.5,0.2
				c5.7-0.2,5.6,1.3-0.4,4.4c-1.6,1.2-3.1,2.4-4.7,3.6c-2.6,0.5-5.3,1-7.9,1.5c0.3-11.3,1.6-14.9,3.9-10.7c0.5,0.7,0.9,1.5,1.2,2.3
				c0.1,0.1,0.3-0.2,0.2-0.3c-1.4-2.6-2.8-5.7-5.9-6.3c-2.2-0.4-4,0.5-4.5,2.7c-0.1,0.6-0.1,1.1,0,1.7c0.5,3.1,2.2,6.1,3.6,8.9
				c0.6,1.1,1.3,3.8,3,4.1c0.6,0.1,1-0.1,1.5-0.3c0.3-0.1,4.5-3,4.8-3.2c3.3-2.3,6.4-4.9,9.5-7.5c0.7-0.6,1.9-1.3,1.3-2.3
				c-0.2-0.3-0.4-0.4-0.7-0.5c-0.5-0.2-2.4-0.2-2.9-0.2c-3.2,0.1-6.3,1.1-9.4,1.8c-1.6,0.4-2.3,1.3-2.6,2.9
				C183.1,22.9,184.1,21.4,184.1,21.2z"/>
			<path class="st3" d="M183.4,21.9c0.2-0.9,1.1-1.5,1.8-1.7c2.2-0.7,4.5-1.1,6.7-1.4c1.7-1.1,3-0.9,3.8,0.6
				c1.1,0.5,1.4,0.8,0.9,1.1c-0.9,0.5-1.7,1.2-2.3,2c-4,3.8-8.7,6.5-14.3,8.1c-0.2-0.3-0.3-0.6-0.5-0.8c-0.8-1.6-1.7-3.3-2.5-4.9
				c-0.4-3.1-0.9-6.2-1.3-9.3c0.8-0.2,1.7-0.5,2.5-0.7c3.3,0,4.9,3.5,6.1,6.1c0.1,0.2,0.5,0.1,0.3-0.1c-1.3-2.9-3-6.2-6.7-6.3
				c-1.9-0.1-3.5,0.8-3.7,2.8c-0.2,2.4,1.3,5.5,2.1,7.3c0.9,2,1.8,4,2.8,5.9c0.6,1.1,1.5,1.6,2.7,1.4c0.3-0.1,0.6-0.2,1-0.3
				c1.8-0.8,3.4-1.9,4.9-3.3c3.3-2.5,6.6-5.1,9.7-7.8c0.5-0.4,1-0.7,0.8-1.5c-0.1-0.4-0.5-0.6-0.8-0.8c-1.9-0.3-3.9-0.3-5.8,0.1
				c-1,0.1-1.9,0.3-2.9,0.6c-1,0.3-1.9,0.5-2.9,0.8c-0.7,0.1-1.4,0.3-2.1,0.6c-0.9,0.5-0.8,0.7-1,1.6
				C182.9,22.2,183.3,22.3,183.4,21.9z"/>
			<path class="st3" d="M183.9,22.4c0.4-2.2,11.1-3.4,11.2-3.4c0.7,0.6,1.4,1.3,2.1,1.9c-2.9,3.4-6.5,5.7-10.8,7
				c-4.2,4.6-6.8,4.6-7.8,0c-1.4-2.6-2.5-5.3-3.3-8.1c0-0.3-0.1-0.7-0.1-1c5.2-1.8,8.5-0.8,9.7,2.9c0.2,0.4,0.3-0.6,0.1-0.8
				c-1.2-2.2-2.5-4.6-5-5.6c-1.2-0.5-2.9-0.6-4,0.3c-0.7,0.5-1,1.3-1.1,2.2c-0.1,0.8,0,1.5,0.2,2.3c1.1,3.5,2.5,6.8,4.2,10.1
				c0.4,0.9,0.9,2.2,1.9,2.5c0.6,0.2,0.9,0,1.4-0.2c2.1-0.5,3.8-2.3,5.4-3.4c3.2-2.3,6.3-4.8,9.2-7.4c0.5-0.3,1-0.6,1.3-1.1
				c0.3-0.6,0.1-1.2-0.4-1.6c-0.2-0.1-0.4-0.2-0.6-0.2c-1.9-0.3-3.7-0.2-5.6,0.2c-1.9,0.4-3.7,0.9-5.5,1.5c-1.4,0.2-2.6,0.3-2.9,1.8
				C183.5,22.3,183.8,22.5,183.9,22.4z"/>
			<path class="st3" d="M184.3,21.8c0-0.3,0.1-0.5,0.1-0.8c-0.2,0.2-0.3,0.4-0.5,0.6c0.7-0.4,1.4-0.8,2.1-1.1
				c11.3-3,14.3-2.5,9.1,1.6c-2.3,3.1-5.6,3.9-9.8,2.4c-6,2.7-9.2,1.1-9.6-4.7c-0.1-0.4-0.1-0.7-0.2-1.1c0.9-1.1,1.7-2.2,2.6-3.4
				c2.5-1.6,5.6,3.6,6.7,5.2c0.1,0.1,0.9,0.7,0.7,0.3c-1.3-2.5-2.8-5.6-5.9-6.1c-1.8-0.3-3.3,0.3-4.1,1.8c-0.4,0.7-0.5,1.5-0.4,2.3
				c0.1,1.5,0.8,2.8,1.4,4.1c1.1,2.5,2.3,5.1,3.7,7.5c0.7,1.1,1.5,1.9,2.9,1.5c0.2-0.1,0.4-0.2,0.6-0.3c0.9-0.5,1.7-1,2.4-1.6
				c1.6-1.1,3.2-2.2,4.7-3.5c2.4-1.9,4.7-4,7.1-6c0.3-0.3,0.8-0.4,1-0.8c0.6-1.1-0.5-1.5-1.4-1.6c-4-0.5-8,0.6-11.7,1.9
				c-1.5,0.5-2.6,1.3-2.8,2.8C183.1,23.1,184.3,22.1,184.3,21.8z"/>
			<path class="st3" d="M183.5,21.8c0.4-2.2,8.8-3.2,8.2-3.3c1.7,0.5,3.5,1.1,5.2,1.6c-2.9,2.8-6,5.4-9.4,7.8
				c-1.7,2.8-3.7,3.8-6,2.9c-0.8,0.1-1.4-0.3-1.6-1c-4.9-12.1-4.6-16.9,0.8-14.4c1.7,1.5,2.9,3.2,3.8,5.2c0.1,0.2,0.4,0,0.3-0.2
				c-1.4-2.8-3.1-6-6.6-6.1c-1.3,0-2.8,0.4-3.4,1.7c-1.2,2.4,1.3,7.1,1.9,8.6c1,1.8,1.9,3.7,2.7,5.6c0.1,0.3,0.3,0.6,0.6,0.9
				c0.4,0.4,0.8,0.5,1.3,0.6c0.4,0.1,0.9,0,1.4-0.1c2-0.8,3.8-2,5.5-3.6c3.1-2.3,6.1-4.8,8.9-7.5c1-0.7,2.1-1.6,0.8-2.5
				c-0.7-0.5-3.7-0.3-3.1-0.3c-3,0.1-5.7,1.1-8.6,1.8c-0.8,0.2-2.2,0.4-2.7,1.2c-0.3,0.4-0.3,1-0.4,1.5
				C182.9,22.9,183.4,22.1,183.5,21.8z"/>
			<path class="st3" d="M183.8,21.7c0.1-0.6,1.3-1,1.8-1.2c0.9-0.3,1.8-0.6,2.8-1c10.9-1.8,11.5,0.1,1.8,5.8c-6,8.5-8.8,7.8-8.4-1.9
				c-3.2-7.2-3.3-9.5-0.3-6.7c1.4,1.1,2.1,2,3.1,3.5c0.2,0.2,0.8,0.6,0.5,0.1c-1-1.9-2.1-3.8-3.9-5c-1.3-0.9-3.8-1.2-5.1-0.1
				c-1,0.8-1.2,2.1-1.1,3.3c0.1,0.7,0.3,1.5,0.5,2.2c0.5,1.6,1.4,3.3,2.1,4.8c0.5,1.1,1.8,4,2.9,5.5c0.7,0.9,1.8,1.2,2.8,0.9
				c0.3-0.1,0.6-0.2,0.9-0.4c1.6-1.2,3.2-2.4,4.8-3.5c1.3-1.1,2.6-2.3,4-3.4c1.7-1.5,3.3-3,5-4.5c0.8-0.7,0.8-1.6-0.2-2
				c-0.6-0.2-2.3-0.2-3-0.1c-0.9,0-2,0.2-2.9,0.4c-2.2,0.4-4.4,1-6.5,1.6c-1.5,0.4-2.2,1.5-2.4,3C182.8,23.5,183.8,21.9,183.8,21.7z
				"/>
			<path class="st3" d="M184.2,22.2c0.3-1.5,4.5-2.3,5.6-2.6c2.7-1,5.4-0.9,8.1,0.2c-0.9,0.8-1.7,1.7-2.6,2.5
				c-2.1,2.1-4.4,4-6.8,5.8c-9.7,1-12.8-1.5-9.2-7.7c-0.2-4.5,0.7-5.7,2.8-3.7c1.3,1.2,2.3,2.6,3.1,4.2c0.2,0.3,0.8,0.6,0.5,0
				c-1.5-2.9-4-7.2-8-5.9c-1,0.3-1.7,0.9-2.1,1.9c-0.2,0.4-0.3,0.9-0.3,1.3c0,0.7,0.1,1.4,0.3,2.1c1.2,3.4,2.7,6.6,4.5,9.8
				c0.4,0.9,0.9,2,2,2.2c0.5,0.1,0.8-0.1,1.3-0.2c0.2,0,0.3-0.1,0.4-0.2c3.3-2.1,6.5-4.4,9.5-6.9c1.5-1.7,3.2-3.2,5.1-4.3
				c0.2-0.2,0.4-0.4,0.6-0.5c0.6-0.9-0.1-1.4-0.9-1.6c-1.2-0.5-2.5-0.4-3.7-0.3c-2.9,0.2-6.1,1.2-8.8,2.2c-1.3,0.5-2.2,0.9-2.3,2.4
				C183.2,23.1,184.2,22.4,184.2,22.2z"/>
			<path class="st3" d="M183.4,22.1c1.6-1.4,3.5-2.3,5.7-2.6c2.8-1,5.6-0.8,8.4,0.7c-0.3,0.1-0.5,0.3-0.8,0.5
				c-3.4,4.7-7.7,7.7-13,8.9c-2.1,2-3.5,2.1-4.2,0.3c-3.6-4.5-3.6-9.4,0.1-14.6c2.6,1,3.8,3.6,4.8,5.9c0.1,0.3,0.4-0.2,0.3-0.4
				c-1.5-3.1-3.9-7-8-6c-1.9,0.5-2.4,2-2.3,3.8c0.3,4,2.9,7.7,4.5,11.2c0.3,0.6,0.5,1.4,1,1.8c0.7,0.7,1.5,0.7,2.4,0.4
				c1.8-0.6,5.7-3.7,5.6-3.6c1.5-1.2,3-2.4,4.6-3.5c2.1-1.5,4.1-3.1,5.8-4.9c0.2-0.5,0.1-0.9-0.2-1.3c-0.6-0.7-3.6-0.4-3.2-0.5
				c-3,0-5.7,1.1-8.7,1.7c-1.5,0.3-2.7,0.4-3.1,2C183,22.2,183.4,22.3,183.4,22.1z"/>
		</g>
	</g>
</g>
<g class="st1">
	<g class="st2">
		<g>
			<path class="st3" d="M167.6,28.4c0.1-2.4,1-4.5,2.6-6.3c2.6-3,6.2-4,10.7-3.1c-0.4-0.1-0.9-0.3-1.3-0.4c3.6,1.7,2.3,6,0.9,8.2
				c-1.1,1.9-2.8,3.5-4.6,4.8c-2.3,1.7-5,3-7.2,4.8c-1.5,1.2-2.5,2.2-3.7,3.7c0.3-0.2,0.7-0.4,1-0.5c-0.7-0.6-1.3-1.2-2-1.8
				c-1.3-2.3-2.5-4.5-3.8-6.8c-1.1-2.4-2-4.8-2.7-7.3c-0.6-1.9-0.9-3.8-1-5.7c-0.5-1.5,0.2-2.2,2-2c5.1-2.3,8.4,1,9.9,9.8
				c0.2,0.3,0.5,0.7,0.7,0.2c0.2-0.4-0.5-1.4-0.7-1.8c-1.3-2.1-2.7-4.1-4.3-6c-1.1-1.2-2.1-2.5-3-3.8c-0.6-0.7-1.3-1.3-2.3-1.4
				c-0.9-0.1-1.7,0.3-2.2,1c-0.6,0.7-0.8,1.7-1,2.6c-0.1,2,0.1,3.9,0.6,5.8c0.6,2,1.2,4,2,5.9c1.7,4.4,3.8,8.5,6.7,12.2
				c0.3,0.4,0.9-0.2,1.2-0.4c2-2.4,4.4-4.3,7.2-5.7c1.5-0.8,2.9-1.6,4.2-2.6c1.8-1.3,3.4-2.9,4.5-4.9c1-1.9,1.6-4.5,0.6-6.5
				c-1.1-2.2-3.2-2.6-5.6-2.5c-3.2,0.2-6.2,1.7-8.2,4.2c-1.7,2.1-2.1,4.1-2.5,6.6C166.2,29.3,167.5,28.9,167.6,28.4z"/>
			<path class="st3" d="M166.4,28.2c0-1.2,0.3-2.4,0.8-3.5c1.6-4.8,6-6.7,13.2-5.7c-0.4-0.3-0.7-0.6-1.1-0.8
				c0.6,0.6,1.2,1.2,1.7,1.8c-0.3-0.4-0.6-0.7-0.9-1.1c4.3,9.6-7.1,13.1-12.1,17c-1.6,1.2-2.6,2.3-3.9,3.8c1-0.3,2-0.6,3-0.9
				c-1.7-1.1-3.1-2.3-4.3-4c-4.1-5.9-8.1-11.2-7.2-19.5c-0.1,0.4-0.2,0.8-0.3,1.2c1.9-3.6,3.9-3.2,6,1.3c2.6,1.8,4.6,4.2,6,7.1
				c0.2,0.4,0.4,0.1,0.6-0.1c0.2-0.3-0.2-1.5-0.4-1.8c-1.4-2.3-3.1-4.3-5.1-6c-1.2-0.8-2.1-1.8-2.8-3c-0.5-0.6-1.1-1.1-1.9-1.1
				c-1.7-0.2-2.6,1.3-2.9,2.8c-0.5,2.4,0.1,5.2,0.8,7.5c0.8,2.7,2.1,5.4,3.4,8c1.5,3.1,3,6,5.1,8.7c0.4,0.6,2.8-0.4,3.2-0.8
				c2.3-2.8,5.1-4.9,8-7c1.8-1.3,3.4-2.7,4.7-4.5c1.9-2.5,3.3-8.3-0.6-9.9c-2.1-0.8-4.9-0.2-6.9,0.6c-1.3,0.5-2.5,1.1-3.6,2.1
				c-0.6,0.6-1.2,1.2-1.7,1.8c-1.6,2.1-2.1,4.2-2.5,6.7C164.7,29.9,166.3,28.6,166.4,28.2z"/>
			<path class="st3" d="M166.8,26.3c11-10.4,16-12.2,14.9-5.2c0.1,2.1-0.7,3.8-2.4,5.3c-1.7,1.9-3.7,3.3-6,4.7
				c-1.8,1.1-3.8,2.1-5.5,3.3c-1.8,1.3-2.3,2-3.7,3.7c0.5,0,1,0,1.5,0c-1.2-1.1-2.3-2.1-3.2-3.5c-1.7-2.5-2.9-5.3-4-8.1
				c-1.9-2.6-1.8-5.2,0.5-7.8c0.4-5.1,1.5-6.1,3.2-3c2.2,2.7,4,5.6,5.7,8.6c0.1,0.1,0.7-0.2,0.6-0.3c-2.5-4-5-7.9-8.1-11.5
				c-0.6-0.7-1-1.2-2-1.4c-2.2-0.3-3.2,1.5-3.4,3.4c-0.3,2.5,0.2,5.3,0.9,7.6c0.8,2.7,2.1,5.3,3.3,7.9c0.6,1.4,1.3,2.8,2,4.2
				c0.8,1.6,1.8,3,3.1,4.3c0.3,0.3,1.4,0.5,1.7,0.1c1.5-1.9,3.2-3.4,5.2-4.8c1.4-1,2.8-1.9,4.2-2.8c2.4-1.6,4.7-3.4,6.1-5.9
				c1.2-2,1.9-6,0.1-7.8c-1.3-1.3-3.2-1.2-4.9-1.1c-2.5,0.2-4.9,1.1-6.8,2.8c-2.7,2.3-3.8,5.3-4.3,8.7c-0.1,0.4,0.3,0.4,0.5,0.3
				C166.3,27.7,166.8,26.7,166.8,26.3z"/>
			<path class="st3" d="M167.2,27.7c0-1.6,0.4-3.1,1.4-4.3c1.2-3,3.5-4.8,7.1-5.4c-0.7,0.2-1.5,0.4-2.2,0.6c2.1-0.2,4.2-0.4,6.3-0.5
				c-0.7-0.1-1.5-0.1-2.2-0.2c0.9,0.2,1.9,0.4,2.8,0.5c-0.7-0.2-1.4-0.4-2.1-0.5c0.8,0.6,1.6,1.3,2.5,1.9c-0.1-0.2-0.3-0.5-0.4-0.7
				c2.1,7.6-4.7,11.7-10.1,15.6c-1.9,1.4-3.3,2.7-4.8,4.5c0.9-0.2,1.7-0.5,2.6-0.7c-4.6-2.7-8.6-8.9-10.2-13.5
				c-1.2-3.3-2.1-6.6-1.4-10.2c-0.2,0.6-0.4,1.2-0.7,1.9c0.5-1,0.9-2.1,1.4-3.1c-0.4,0.7-0.9,1.5-1.3,2.2c0.6-0.8,1.2-1.5,1.7-2.3
				c-0.5,0.5-0.9,1-1.4,1.4c0.5-0.4,1.1-0.8,1.6-1.2c-0.4,0.2-0.9,0.5-1.3,0.7c0.7-0.1,1.3-0.2,2-0.1c-0.2,0-0.5-0.1-0.7-0.1
				c3.1,1.4,5.7,3.6,7.9,6.6c-0.4-0.5-0.8-0.9-1.2-1.4c1.2,1.6,2.3,3.1,3.5,4.7c0.2,0.3,0.5,0.8,0.8,0.3c0.2-0.4-0.8-1.6-1-1.9
				c-1.2-1.7-2.5-3.4-3.9-5c-1.4-1-2.5-2.3-3.2-3.8c-0.2-0.2-0.4-0.5-0.6-0.7c-1.3-1-3.1-0.2-3.9,1c-1.7,2.7-1.2,5.9-0.3,8.9
				c1,3.2,2.6,5.9,4.4,8.7c0.8,1.2,1.6,2.4,2.2,3.7c0.8,1.5,1.9,2.9,3.2,4.1c0.4,0.4,2.3-0.3,2.6-0.7c1.6-1.9,3.4-3.7,5.3-5.3
				c1.4-1.2,3-2.2,4.3-3.4c2.1-1.8,4.2-4.2,4.7-7c0.3-1.7,0.3-3.9-1.1-5.2c-0.7-0.7-1.4-0.7-2.4-0.8c-2.4-0.2-4.8,0.2-7,1.2
				c-2,1-3.7,2.3-5.1,4.2c-1.5,2.2-2.2,4.3-2.5,6.9c-0.1,0.7,1-0.1,1-0.2C165.8,29.1,167.1,28.3,167.2,27.7z"/>
			<path class="st3" d="M167.7,25.9c0.9-2.1,1.7-4.1,2.6-6.2c-0.4,0.5-0.8,1-1.2,1.4c2.5-2.4,7.5-5.5,11.4-3.8
				c3,1.3,2.1,5.3,0.9,7.4c-1.8,3.3-5.4,5.2-8.4,7c-1.5,0.8-3,1.7-4.4,2.7S166,36.6,165,38c0.2,0,0.5,0.1,0.7,0.1
				c-1.4-2.1-2.8-4.1-4.3-6.2c-0.4-0.9-0.8-1.8-1.2-2.6c-1.1-2.5-2.2-5-2.9-7.6c-0.7-1.6-0.8-3.3-0.3-5.1c-1-3.3-0.4-4.3,1.9-3.2
				c1.5,0,2.6,0.7,3.3,2.1c2.5,2.6,4.6,5.5,6.3,8.7c0.2,0.3,0.7-0.3,0.6-0.4c-0.7-1.2-1.4-2.4-2.2-3.6c-1.6-2.4-3.4-4.7-5.3-6.8
				c-0.4-0.6-0.8-1.5-1.4-2c-0.8-0.6-2.2-0.7-3-0.1c-0.7,0.5-1,1.4-1.3,2.1c-1,2.8-0.4,6,0.4,8.7c1.1,3.5,2.9,6.7,4.5,10.1
				c0.6,1.5,1.4,3,2.3,4.4c0.5,0.7,1.2,1.4,1.8,2c0.1,0.1,0.6,0.2,0.7,0.1c1.5-2,3.3-3.7,5.5-4.9c1.4-0.9,2.8-1.7,4.2-2.6
				c2.8-1.7,5.1-3.5,6.6-6.4c1.4-2.6,2-6.7-1-8.4c-1.9-1-5.4-0.3-7.2,0.4c-1.7,0.7-3,1.7-4.2,3c-0.9,0.9-1.7,2-2.3,3.1
				c-1.1,1.9-1.3,3.3-1.6,5.4c-0.1,0.7,1-0.4,0.9-0.3C167,27.3,167.6,26.5,167.7,25.9z"/>
			<path class="st3" d="M166.3,27.2c0.9-5.2,5.4-10.6,11.1-9.7c1,0.3,1.9,0.6,2.9,0.8c1.3,2.9,0.9,5.7-1.3,8.4
				c-2.3,3.4-6.4,5.1-9.8,7.2c-2.4,1.4-4.2,3-6,5.1c0.9-0.1,1.7-0.3,2.6-0.4c-1.7-1.9-3.4-3.9-5.1-5.8c-1.3-2.8-2.6-5.5-4-8.3
				c-0.3-1-0.6-1.9-1-2.9c-0.9-2-0.8-4.1,0.2-6.1c-0.1-3.3,0.7-4,2.5-1.9c1.3,0.6,2.2,1.5,3,2.7c2.1,2.6,3.8,5.4,5.5,8.2
				c0.2,0.3,0.9,0.1,0.7-0.3c-1.3-2.2-2.7-4.4-4.2-6.5c-1.3-1.4-2.5-3-3.5-4.7c-0.2-0.2-0.6-0.8-1-1.1c-0.7-0.4-1.6-0.4-2.3-0.2
				c-1.2,0.3-1.4,0.7-1.9,1.8c-1.4,3.2,0.1,7.5,1.1,10.5c1.8,5.3,4.1,10.7,7.5,15.2c0.3,0.4,2.3,0,2.6-0.4c1.5-1.9,3.2-3.4,5.2-4.8
				c1.4-1,2.8-1.9,4.2-2.9c1.6-1.2,3.1-2.5,4.3-4.1c0.9-1.1,1.7-2.4,2-3.8c0.3-1.3,0.4-3-0.1-4.3c-1-3.1-5.5-2.5-7.9-1.9
				c-2.4,0.7-4.5,2-6,4.1c-1.3,1.9-1.8,3.6-2.2,5.9C165.4,27.7,166.2,27.8,166.3,27.2z"/>
			<path class="st3" d="M167.2,28.5c0.9-2.1,1.7-4.2,2.6-6.3c0.7-0.9,1.6-1.6,2.6-2c2.5-1.4,4.9-1.4,7.9-1c-0.2-0.1-0.5-0.2-0.7-0.3
				c0.7,0.7,1.4,1.5,2.1,2.2c-0.2-0.3-0.3-0.7-0.5-1C182.8,27,177,30.9,172,34c-1.2,0.8-2.8,1.7-3.9,2.5c-1.5,1.2-2.5,2.3-3.8,3.8
				c0.5-0.2,1-0.5,1.4-0.7c-1.6-1.1-2.8-2.4-3.7-4.1c-1.2-1.5-2.1-3.1-2.7-4.9c-0.8-1.9-1.5-3.8-2-5.7c-0.7-1.9-1.2-3.8-1.4-5.8
				c-0.2-3.1-0.5-6.2,4.5-3.5c1.8,1,7.6,10.6,7.6,10.6c0.2,0.3,0.5,0,0.6-0.1c0.2-0.3-0.2-1.2-0.4-1.4c-2.3-3.5-4.7-6.8-7.3-10.1
				c-0.3-0.3-0.6-0.8-0.9-1c-1.6-1.3-3.5-0.5-4.3,1.2c-1,2.3-0.5,5.2,0.1,7.6c0.5,2,1.2,4.1,2,6c1.8,4.4,3.8,8.6,6.6,12.5
				c0.3,0.5,1.3-0.3,1.6-0.6c1.9-2.5,4.3-4.4,7.1-5.7c1.4-0.7,2.7-1.5,3.9-2.4c2.4-1.8,4.8-4.2,5.5-7.2c0.4-2,0.4-4.4-1.2-5.9
				c-1-0.9-2.4-0.9-3.7-0.9c-3.1,0-6.1,1.3-8.2,3.6c-1.7,1.9-2.3,4-2.7,6.5C166.5,28.5,167.1,28.9,167.2,28.5z"/>
			<path class="st3" d="M168.1,27.3c0.2-3.9,2.3-6.9,6.3-9c-0.7,0.3-1.4,0.5-2.1,0.8c2-0.5,4.1-1,6.1-1.5c-0.7,0.1-1.4,0.1-2.1,0.2
				c1.7,0.4,3.4,0.9,5,1.3c-0.2-0.2-0.3-0.3-0.5-0.5c3.2,6-2.9,11.1-7,13.7c-1.6,1-3.1,2-4.6,3c-1.4,1-2.6,2.2-3.6,3.6
				c0.4-0.1,0.7-0.1,1.1-0.2c-1.3-1.1-2.4-2.1-3.4-3.5c-1.9-2.8-3.3-6.1-4.5-9.3c-0.8-1.9-1.4-3.8-1.8-5.8c-0.5-2.6-0.5-4.6,0.8-7.1
				c-0.4,0.6-0.9,1.2-1.3,1.8c0.6-0.6,1.2-1.3,1.9-1.9c-0.5,0.4-0.9,0.8-1.4,1.1c0.6-0.3,1.1-0.6,1.7-0.9c-0.4,0.2-0.9,0.3-1.3,0.5
				c2.3,0.1,4.1,1.3,5.3,3.4c1.9,2,3.7,4.2,5.2,6.6c0.1,0.2,0.8,1.1,1.1,1c0.4-0.1,0.2-0.4,0.1-0.7c-2.3-3.7-4.9-7.1-7.7-10.5
				c-0.6-0.7-0.9-1.2-1.9-1.4c-1.6-0.3-2.8,1.1-3.5,2.3c-0.8,1.4-0.7,2.9-0.5,4.5c0.2,3.1,1.3,5.9,2.6,8.6c2.1,4.2,4.2,8.6,7.5,11.9
				c0.2,0.2,0.9,0,1.1-0.2c2.2-2.6,4.7-4.5,7.5-6.3c2.5-1.6,5.1-3.4,6.9-5.8c1.7-2.3,3.9-8.2,0.1-9.8c-1.1-0.5-2.6-0.4-3.8-0.3
				c-1.1,0.1-2.2,0.3-3.2,0.6c-2.2,0.7-4.1,1.8-5.6,3.5c-0.9,0.9-1,1.1-1.7,2.2c-1.2,1.8-1.5,3.5-1.9,5.7
				C165.1,29.5,168,28,168.1,27.3z"/>
			<path class="st3" d="M166.4,26.9c5-2.2,9.9-4.4,14.9-6.6c-1.1,2.6-2.2,5.1-3.3,7.7c-1.8,1.6-3.8,3-5.9,4.1
				c-1.6,0.9-3.1,1.8-4.6,2.8c-1.4,1-2.7,2.2-3.6,3.6c0.9,0,1.7-0.1,2.6-0.1c-1.8-1.2-3.3-2.6-4.3-4.4c-4.1-6-5.9-12.9-5.5-20.9
				c0.9,0.1,1.7,0.1,2.6,0.2c3,3.4,5.7,7,8.1,10.8c0.2,0.4,0.9-0.1,0.6-0.5c-1.6-2.6-2.7-4.3-4.6-6.8c-1.3-1.3-2.4-2.7-3.5-4.2
				c-0.2-0.4-0.6-0.7-1-0.8c-0.7-0.4-1.4-0.4-2.2-0.1c-1.2,0.4-1.6,1.3-1.8,2.5c-0.8,3.2,0.3,7,1.4,10c1.9,5.2,4.1,10.4,7.6,14.6
				c0.3,0.4,2.3,0.3,2.6-0.1c1.3-1.6,2.6-2.9,4.3-4.2s3.5-2.4,5.1-3.6c2.1-1.6,4.2-3.7,5.3-6.1c1-2.2,1.7-6-0.7-7.7
				c-0.9-0.7-2.2-0.7-3.4-0.7c-2.4-0.1-4.8,0.8-6.8,2.1c-3.3,2.1-4.6,5.8-5.1,9.4c-0.1,0.3,0.3,0.3,0.5,0.3
				C166,28.1,166.4,27.2,166.4,26.9z"/>
			<path class="st3" d="M167,26.8c0.8-2.1,1.7-4.2,2.5-6.2c-0.5,0.5-0.9,1-1.4,1.6c0.9-0.9,1.8-1.8,2.7-2.7c-0.5,0.4-1,0.8-1.5,1.3
				c7.6-4.7,11.5-4.5,11.8,0.7c-1.8,5.1-4.9,8.9-9.1,11.4c-1.2,0.7-2.3,1.5-3.4,2.3c-1.4,1-2.6,2.2-3.6,3.6c0.8,0,1.6,0,2.5,0
				c-1.5-0.7-2.7-1.8-3.7-3c-4.9-6-7.5-12.8-7.9-20.4c-0.1,0.7-0.1,1.4-0.2,2.1c0.1-1,0.3-1.9,0.4-2.9c-0.2,0.7-0.4,1.3-0.5,2
				c1.8-2.5,3.4-2.7,4.8-0.7c2.8,2.3,5.2,5,7.2,8.1c0.2,0.2,0.4,0.3,0.6,0.1c0.3-0.2-0.1-0.7-0.2-0.9c-1.4-2.1-2.9-4.1-4.5-6
				c-1.4-1-2.5-2.3-3.2-3.8c-0.2-0.4-0.5-0.8-0.8-1c-2.1-1.4-3.6,0.5-4.1,2.4c-1,3.5,0,7.3,1.4,10.5c1,2.6,2.5,4.9,3.8,7.4
				c1.4,2.5,2.5,4.4,4.4,6.5c0.3,0.4,2.1,0.3,2.5,0c1.1-1.3,2.2-2.4,3.5-3.5c2-1.7,4.2-3.1,6.1-4.8c2-1.9,4.1-4.4,4.9-7.1
				c0.6-2.1,0.6-4.7-1.2-6.2c-0.2-0.2-0.4-0.3-0.7-0.4c-1.3-0.5-3.5-0.3-4.8,0c-1.7,0.3-3.4,1.1-4.8,2.2c-1.1,0.8-2.1,1.9-2.9,3
				c-1.8,2.3-2.3,4.6-2.7,7.3c-0.1,0.7,1-0.4,0.9-0.4C166.1,28.3,166.9,27.5,167,26.8z"/>
			<path class="st3" d="M167.9,28c0-2,0.7-3.8,2.3-5.1c1.6-3.4,4.5-5,8.7-4.7c-0.6,0-1.3,0-1.9,0c1.3,0.1,2.5,0.2,3.8,0.3
				c-0.6-0.1-1.3-0.3-1.9-0.4c0.8,0.3,1.7,0.5,2.5,0.8c-0.6-0.2-1.2-0.5-1.8-0.7c0.4,2.7,0.7,5.4,1.1,8.1c-0.4,0.6-0.8,1.2-1.2,1.8
				c-1.8,2.3-4.2,3.9-6.6,5.4c-1.6,1-3.1,2-4.5,3.2c-1.5,1.3-1.1,0.9-2.8,2.9c0.3-0.1,0.7-0.3,1-0.4c-3.6-3.1-5.3-6.9-7.1-11.2
				c-1.8-4.2-4.3-9.6-1.8-14.2c-0.3,0.3-0.5,0.6-0.8,1c0.4-0.4,0.9-0.8,1.3-1.2c-0.4,0.2-0.7,0.5-1.1,0.7c1-0.6,2-0.5,2.8,0.4
				c3.3,2.9,6.1,6.3,8.3,10c0.8,1.2,1.4,0.8,0.6-0.4c-1.8-2.8-3.7-5.4-5.8-8.1c-0.9-1.1-1.7-2.7-3.2-3.2c-1.2-0.4-2.3,0-3.1,0.9
				c-1,1-1.2,2.2-1.2,3.6c-0.1,3,0.8,5.8,1.9,8.6c2,5,4.5,10.1,8.1,14.1c0.2,0.2,0.9-0.2,1-0.4c2-2.5,4.5-4.5,7.4-6
				c1.4-0.8,2.7-1.6,4-2.6c1.7-1.4,3.4-3,4.4-5c1.2-2.2,1.9-5.7-0.3-7.6c-1.9-1.7-5.9-1.1-8-0.4c-2.4,0.7-4.4,2.2-5.9,4.1
				c-1.7,2.1-2.2,4.2-2.6,6.8C165.4,29.6,167.8,28.5,167.9,28z"/>
			<path class="st3" d="M166.4,27.7c0.1-0.8,0.3-1.6,0.4-2.4c0.8-3.4,2.9-5.3,6.4-5.6c2.4-2.3,4.4-2.3,5.9,0
				c0.6,0.5,1.2,1.1,1.8,1.6c-3,3.9-6.1,7.9-9.1,11.8c-1.6,1-3.2,1.8-4.7,2.9c-1.9,1.4-2.3,2-3.8,3.8c0.9-0.2,1.7-0.5,2.6-0.7
				c-2.2-1.4-4-3.4-5.2-5.8c-2.1-3.5-3.8-7.3-4.9-11.2c-0.5-2.1-2.2-8.3,1.3-9c1.7-0.3,2.5,1.3,3.1,2.5c0.9,1,1.7,2.1,2.6,3.1
				c1.6,2.2,3,4.4,4.3,6.8c0.3,0.5,0.8-0.4,0.5-0.9c-1.4-2.2-2.8-4.2-4.2-6.3c1.2,1.6-3.1-4.7-4.2-5.3c-0.7-0.4-1.6-0.6-2.5-0.4
				c-1.2,0.2-1.4,0.6-1.9,1.8c-0.7,1.6-0.6,2.9-0.4,4.7c0.4,3.1,1.4,6,2.6,8.9c1.7,4.3,3.7,8.4,6.3,12.1c0.4,0.5,2.4-0.2,2.7-0.6
				c2.8-3.4,6.5-5.4,10-8c1.4-1,2.6-2.1,3.6-3.5c1.7-2.2,2.8-5.1,2.1-7.9c-0.7-2.9-4.3-2.8-6.7-2.5c-1.5,0.2-3.3,0.9-4.6,1.7
				c-3,2-4.1,4.9-4.7,8.3C165.7,27.8,166.3,28.1,166.4,27.7z"/>
		</g>
	</g>
</g>
<g>
	<path class="st4" d="M8.5,11.9c0-0.3,0.3-0.3,0.6-0.3c0.8,0,1.9,0.2,1.9,0.7c-0.2,2.2-0.4,4.2-0.6,6.2c1-3.3,2.6-6.7,5.2-6.7
		c1.6,0,3.3,1.1,3.3,4c0,3.9-3.1,6.3-6,7.2c2.2,0.4,3.8,1.4,4.3,3.8c0.2,0.9,0.2,1.7,0.6,2.7c0.2,0.7,0.6,1.3,1.5,1.5
		c-0.5,0.5-1,0.7-1.8,0.7c-1.9,0-2.1-1.4-2.5-4.1c-0.3-2.1-0.7-4.2-4.2-4.2h-0.6c-0.1,2.2-0.2,4.3-0.3,6.5c-0.4,0.1-0.5,0.2-1,0.2
		c-0.9,0-1-0.5-1-2.1C7.7,25,8.5,12.6,8.5,11.9z M10.2,22c0,0.2,0,0.3,0,0.5h0.6c3.2,0,5.9-3.3,5.9-6.9c0-1.7-0.6-2.6-1.5-2.6
		C12.7,13,10.8,19.2,10.2,22z"/>
	<path class="st4" d="M23.2,25.2c0,2.2,0.7,4.3,2.5,4.3c1.4,0,2.4-1,2.9-2.7c-1.9-0.5-3.5-2-3.5-4.4c0-1.7,0.8-3.2,2.5-3.2
		c1.2,0,3.1,0.8,3.1,4.4c0,1-0.1,1.9-0.4,2.8c2.1,0,3.8-1.9,4.9-3.7l0.5,0.3c-1.1,1.9-2.9,4-5.6,4c-0.8,2-2.3,3.3-4.6,3.3
		c-3,0-4.9-2.2-4.9-5.2c0-3,1.8-7.7,6.7-7.7c0.9,0,2.5,0.3,2.5,1c0,0.3-0.1,0.5-0.3,0.7c-0.5-0.3-1.3-0.7-2.2-0.7
		C24.2,18.5,23.2,22,23.2,25.2z M28.8,26.2c0.2-0.8,0.3-1.7,0.3-2.8c0-2.3-0.7-3.4-1.4-3.4c-0.4,0-1.1,0.3-1.1,2
		C26.7,24,27.5,25.5,28.8,26.2z"/>
	<path class="st4" d="M40.6,25.9c0.2,0.4,0.4,1,0.4,1.6c0,2.5-2,6.2-4.8,6.2c-1.2,0-1.9-0.8-1.9-1.8c0-2,2.4-3.7,4.1-5.1
		c-1-1.9-3.9-2-3.9-4.9c0-2.2,1.9-4.1,4.7-4.1c1.7,0,2.7,0.7,2.7,1.6c0,1.1-1.3,1.9-3.1,1.9c0.6-0.6,1.1-1.3,1.1-1.9
		c0-0.6-0.4-0.8-1-0.8c-1.1,0-2.4,1-2.4,2.5c0,2.1,2.4,2.6,3.7,4.2c1.5-1,3-1.8,5.1-2.7l0.4,0.6C43.6,24,42.1,24.7,40.6,25.9z
		 M38.6,27.5c-1.7,1.4-3.4,2.9-3.4,4.2c0,0.8,0.5,1.1,1,1.1c1.5,0,2.4-2.3,2.4-4.7C38.7,27.9,38.6,27.7,38.6,27.5z"/>
	<path class="st4" d="M51.5,23.8l0.2-0.6h0.8l-0.2,0.7c-1.6,5.4-3,7.4-5.1,7.4c-2.2,0-2.6-2.2-2.6-4.6c0-2.7,0.5-7.5,0.7-8.8
		c0.3-0.1,0.6-0.2,0.8-0.2c0.8,0,1.3,0.2,1.3,1.1c0,1.1-0.7,6.3-0.7,8.6c0,1.4,0.2,2.8,1.1,2.8C48.9,30.3,50.3,27.9,51.5,23.8z
		 M46.4,12.8c0.8,0,1.7,0.6,1.7,1.5c0,0.8-0.6,1-1.3,1c-1,0-1.7-0.5-1.7-1.3C45.1,13.2,45.8,12.9,46.4,12.8z"/>
	<path class="st4" d="M53.3,25.3c0.1,1.9,0.9,3.7,2.8,3.7c2.1,0,3.9-1.6,5.3-3.6l1.5-2.1l0.6,0.3l-1.4,2c-1.6,2.1-3.7,4.3-6.6,4.3
		c-3.2,0-4.7-2.8-4.7-5.6c0-3.1,2-6.7,5.7-6.7c1.9,0,3.5,0.9,3.5,2.6c0,2.2-2.6,3.4-5.2,4.4L53.3,25.3z M53.3,24.6l1.6-0.6
		c1.8-0.7,3.2-2.1,3.2-3.7c0-1-0.6-1.6-1.4-1.6C54.7,18.7,53.3,21.5,53.3,24.6z"/>
	<path class="st4" d="M78.7,20.8c1.8,0,3.2,0,4.3-0.1c0.4-3.4,1-6.6,1.3-8.6c0.1-0.2,0.2-0.2,0.6-0.2c0.8,0,1.6,0.1,1.7,0.5
		c0.1,0.1,0.1,0.3,0.1,0.6c-0.1,1-0.7,4-1.2,7.4c1.2-0.3,2-0.7,3.3-1.4c0,0,0.1,0,0.2,0c0.2,0,0.2,0.4,0.2,0.6
		c0,1.1-0.8,1.6-3.8,1.8C85.2,23.3,85,25.2,85,27c0,2.6,0.4,4.4,2,5.5c-0.4,0.4-1.2,0.5-1.6,0.5c-1.7,0-2.8-1.7-2.8-5.7
		c0-1.9,0.1-3.8,0.3-5.7c-1.2,0.1-2.6,0.1-4.3,0.1c-0.2,2.8-0.6,5.8-0.8,8.2C77.6,30,77.1,30,76.7,30c-0.8,0-1.2-0.2-1.2-0.7
		c0-0.8,1-8.7,1-12.4c0-2.4-0.7-5-3.2-5c-2.1,0-3.8,1.9-3.8,4.4c0,2.3,1.3,4,3.5,4c0.3,0,0.8,0,1.2-0.1l0.1,0.2
		c-0.7,0.6-1.5,1-2.6,1c-2.5,0-4-1.9-4-4.4c0-2.7,1.8-5.8,6.1-5.8c3.8,0,5,2.4,5,6.1C78.9,18.4,78.8,19.6,78.7,20.8z"/>
	<path class="st4" d="M103.6,23.8l0.3-1l0.7,0.2l-0.3,1c-1.4,4.2-2.6,7.4-5.1,7.4c-2.3,0-2.6-2.7-2.6-4.6c0-0.5,0-0.9,0-1.4
		c-0.8,2.2-2.1,4.5-4.1,4.5c-2.3,0-3.3-2.2-3.3-4.3c0-4,3.4-7.8,8.5-7.8c1,0,2.8,0.2,2.8,1c0,0.4-0.1,0.6-0.3,0.7
		c-0.6-0.3-1.1-0.6-2.1-0.6c-4.8,0-6.4,4.2-6.4,7c0,1.3,0.4,2.9,1.3,2.9c1.9,0,3.7-6.2,4.3-8.7c0.3-0.1,0.5-0.2,1-0.2
		c0.6,0,1.2,0.2,1.2,0.9c0,1.3-0.7,4.1-0.7,6.6c0,1.1,0.2,2.9,1,2.9C101.3,30.3,102.4,27.2,103.6,23.8z"/>
	<path class="st4" d="M105.8,24.1c0.8-3,2.1-6.1,4.9-6.1c1.2,0,2,0.6,2,2c0,1.8-1.5,3-2.9,3c-0.4,0-0.7-0.2-1.1-0.4
		c1.3-0.5,1.9-1.9,1.9-2.9c0-0.4-0.2-0.6-0.5-0.6c-2,0-3.9,5-4.9,10.7h0c-0.2,0.1-0.5,0.1-0.8,0.1c-1,0-1.2-0.4-1.2-0.9
		c0-1.7,0.6-5.6,0.5-10.8c0.3-0.1,0.8-0.1,1-0.1c0.7,0,1.3,0.2,1.3,1.2c0,1.3-0.1,2.8-0.1,4.2C105.8,23.8,105.8,23.9,105.8,24.1z"/>
	<path class="st4" d="M113.4,17.3c0.8,0,1.6,0,2.2,0c0.4-1.8,0.7-3.3,0.8-3.7c0.1-0.2,0.2-0.2,0.4-0.2c0.8,0,1.7,0.2,1.7,0.8
		c0,0.4-0.2,1.4-0.5,2.8c1.9-0.3,2.7-0.9,3.9-1.6c0.4-0.2,0.5,0,0.5,0.4c0,1.7-1.4,2-4.5,2.1c-0.5,2.5-1.1,5.8-1.1,8.7
		c0,2.4,0.4,3.8,1.4,3.8c1.3,0,2.9-3.1,4.1-6.4l0.3-1l0.8,0.1l-0.3,1c-1.9,5.3-3.4,7.3-5.4,7.3c-2.3,0-3.1-2.4-3.1-5.1
		c0-2,0.5-5.5,1-8.3h-2.2L113.4,17.3z"/>
</g>
<image style="display:none;overflow:visible;" width="1170" height="532" id="Moth_00000041288770304821272270000004393627466588749979_" xlink:href="15127731.jpg"  transform="matrix(5.454389e-02 0 0 5.454389e-02 129.6918 6.4913)">
</image>
<image style="overflow:visible;" width="1700" height="902" xlink:href="../../../../Downloads/job-applications/images/white-moth.png"  transform="matrix(5.454545e-02 0 0 5.454545e-02 115.8995 -3.2684)">
</image>
</svg>
